<?xml version="1.0" encoding="UTF-8" standalone="no"?> <svg xmlns="http://www.w3.org/2000/svg" viewBox="0 0 512 512"><g id="outline"><path d="M462.643,96a33.429,33.429,0,0,0-16.355,4.284l-90.86,51.109a167.01,167.01,0,0,0-54.609,49.486l-25.731,36.759q-.885-2.474-1.922-4.888a23.952,23.952,0,0,0-1.73-35.108A113.973,113.973,0,0,1,297.4,170.747a36.82,36.82,0,0,0,14.565-25.977,8,8,0,1,0-15.926-1.54,20.783,20.783,0,0,1-8.185,14.676,129.873,129.873,0,0,0-31.852,34,129.843,129.843,0,0,0-31.842-33.991,20.792,20.792,0,0,1-8.195-14.684,8,8,0,0,0-15.926,1.54,36.824,36.824,0,0,0,14.575,25.984,113.981,113.981,0,0,1,25.952,26.888,23.951,23.951,0,0,0-1.731,35.106q-1.04,2.412-1.922,4.89l-25.73-36.759a167.01,167.01,0,0,0-54.609-49.486l-90.861-51.11A33.358,33.358,0,0,0,16,129.357v1.388A116.455,116.455,0,0,0,48.906,212.2L53.1,226.16c.45,1.5.944,2.98,1.46,4.448.028.086.062.169.093.254a97.218,97.218,0,0,0,33.815,45.763,98.353,98.353,0,0,0,20.169,11.6,86.389,86.389,0,0,0-48.215,62.755,85.449,85.449,0,0,0,6.01,50.182L72.5,414.823A69.338,69.338,0,0,0,192.871,426.13l41.655-60.169a96.537,96.537,0,0,0,13.713,31.675l1.11,1.66a8,8,0,0,0,13.3,0l1.116-1.67a96.47,96.47,0,0,0,13.707-31.665l41.655,60.169A69.338,69.338,0,0,0,439.5,414.823l6.072-13.663a85.449,85.449,0,0,0,6.01-50.182,86.389,86.389,0,0,0-48.215-62.755,98.353,98.353,0,0,0,20.169-11.6,97.218,97.218,0,0,0,33.815-45.763c.031-.085.065-.168.093-.254.516-1.468,1.01-2.947,1.46-4.448l4.19-13.965A116.455,116.455,0,0,0,496,130.745v-1.388A33.4,33.4,0,0,0,462.643,96ZM313.927,210.055A149.311,149.311,0,0,1,328.837,192h37.348l-19.834,22.314A130.3,130.3,0,0,1,283.7,253.233ZM430,216H366.26l20.091-22.6A84.473,84.473,0,0,1,430,216Zm.056,32H332.207a145.811,145.811,0,0,0,19.405-16.02c.129.007.257.02.388.02h87.655A81.1,81.1,0,0,1,430.059,248ZM383.28,363.966,315.313,296h25.374L397,352.309A144.269,144.269,0,0,1,383.28,363.966ZM353.1,381.324,280,300.907V296h12.687l77,77A144.075,144.075,0,0,1,353.1,381.324ZM197.3,391.631a144.44,144.44,0,0,1-22.034-4.519L232,324.694V341.5ZM142.318,373,219.313,296H232v4.907l-73.1,80.417A144.083,144.083,0,0,1,142.318,373Zm-27.313-20.686L171.313,296h25.374L128.72,363.967A144.077,144.077,0,0,1,115.005,352.309ZM125.649,193.4,145.74,216H81.992A84.508,84.508,0,0,1,125.649,193.4ZM160.408,232a145.853,145.853,0,0,0,19.386,16H81.941a81.1,81.1,0,0,1-9.6-16ZM208,264a8,8,0,0,0,1.582-.158A145.467,145.467,0,0,0,232,270.608V280H146.963a81.4,81.4,0,0,1-48.651-16Zm40-48a8,8,0,1,1,8,8A8.009,8.009,0,0,1,248,216Zm32,64v-9.392a145.467,145.467,0,0,0,22.418-6.766A8,8,0,0,0,304,264H413.688a81.4,81.4,0,0,1-48.651,16Zm-81.927-69.945L228.3,253.233a130.306,130.306,0,0,1-62.649-38.918L145.815,192h37.348A149.311,149.311,0,0,1,198.073,210.055ZM32,130.745v-1.388a17.358,17.358,0,0,1,25.868-15.128l90.86,51.109A148.955,148.955,0,0,1,165.041,176H140.93a99.857,99.857,0,0,0-13.244.877l-.065.009a100.5,100.5,0,0,0-62.5,33.691L63.663,205.7a8.007,8.007,0,0,0-2.006-3.358A100.588,100.588,0,0,1,32,130.745ZM145.465,296h3.222l-44.569,44.569a143.859,143.859,0,0,1-13.174-18.725A70.363,70.363,0,0,1,145.465,296Zm34.251,121.022a53.338,53.338,0,0,1-92.6-8.7l-6.072-13.663A69.507,69.507,0,0,1,76.16,353.84a70.545,70.545,0,0,1,5.354-16.928,159.982,159.982,0,0,0,43.566,44.122l.061.04.079.052a160.17,160.17,0,0,0,32.952,17.16l.129.049a160.276,160.276,0,0,0,28.857,7.938ZM256,379.044A80.416,80.416,0,0,1,248,344V265.89a67.15,67.15,0,0,1,5.227-26.055,23.384,23.384,0,0,0,5.546,0A67.365,67.365,0,0,1,264,265.89V344A80.429,80.429,0,0,1,256,379.044Zm24-54.35,56.739,62.418a144.44,144.44,0,0,1-22.034,4.519L280,341.5Zm150.951,69.968-6.072,13.663a53.338,53.338,0,0,1-92.6,8.7l-7.442-10.749a160.277,160.277,0,0,0,28.853-7.937l.136-.051a160.138,160.138,0,0,0,32.954-17.162l.069-.045.061-.04a159.973,159.973,0,0,0,43.571-44.126,70.545,70.545,0,0,1,5.354,16.928A69.507,69.507,0,0,1,430.951,394.662ZM366.535,296a70.363,70.363,0,0,1,54.521,25.844,143.784,143.784,0,0,1-13.174,18.725L363.313,296h3.222ZM480,130.745a100.588,100.588,0,0,1-29.657,71.6,8.007,8.007,0,0,0-2.006,3.358l-1.463,4.879a100.475,100.475,0,0,0-62.515-33.7l-.036,0A99.812,99.812,0,0,0,371.07,176H346.959a149.051,149.051,0,0,1,16.313-10.662l90.86-51.109A17.358,17.358,0,0,1,480,129.357Z"/><circle cx="400" cy="400" r="8"/><circle cx="368" cy="416" r="8"/><circle cx="416" cy="160" r="8"/><circle cx="448" cy="144" r="8"/><circle cx="448" cy="176" r="8"/><circle cx="424" cy="376" r="8"/><circle cx="112" cy="400" r="8"/><circle cx="144" cy="416" r="8"/><circle cx="96" cy="160" r="8"/><circle cx="64" cy="144" r="8"/><circle cx="64" cy="176" r="8"/><circle cx="88" cy="376" r="8"/></g></svg>