<?xml version="1.0" encoding="UTF-8" standalone="no"?> <svg width="128" height="128" viewBox="0 0 128 128" fill="none" xmlns="http://www.w3.org/2000/svg">
<path d="M108 21H90.3828L86.9453 107.531L107.83 107.827C114.523 107.922 120 102.523 120 95.8286V33C120 26.3726 114.627 21 108 21Z" fill="black"/>
<path d="M86.6592 20.354L15.697 23.0432C11.3997 23.2061 8 26.7371 8 31.0375V95.8766C8 100.135 11.3362 103.647 15.5893 103.866L86.5379 107.514C91.6832 107.778 96 103.678 96 98.5254V29.3475C96 24.2433 91.7598 20.1607 86.6592 20.354Z" fill="#2F2F2F"/>
<path fill-rule="evenodd" clip-rule="evenodd" d="M85.6402 20.8544C91.0242 20.6503 95.5 24.9598 95.5 30.3476V98C95.5 98.2762 95.2762 98.5 95 98.5C94.7239 98.5 94.5 98.2762 94.5 98V30.3476C94.5 25.5269 90.4953 21.6711 85.6781 21.8537L19.0189 24.3798C18.743 24.3903 18.5108 24.175 18.5004 23.8991C18.4899 23.6232 18.7051 23.391 18.9811 23.3805L85.6402 20.8544Z" fill="#484646"/>
<path d="M42.0609 30.7913L17.6825 31.1983C14.954 31.2438 12.7659 33.4687 12.7659 36.1976V76.4834C12.7659 79.2123 14.954 81.4371 17.6825 81.4827L42.0609 81.8896C44.2958 81.9269 46.1276 80.1254 46.1276 77.8902V34.7908C46.1276 32.5555 44.2958 30.754 42.0609 30.7913Z" fill="black"/>
<path fill-rule="evenodd" clip-rule="evenodd" d="M18.1522 91.6408C18.2495 91.5466 18.3808 91.4959 18.5161 91.5003L39.5906 92.1811C39.8603 92.1898 40.0745 92.411 40.0745 92.6809V98.5C40.0745 98.6367 40.0185 98.7675 39.9195 98.8618C39.8206 98.9562 39.6873 99.0059 39.5508 98.9994L18.4763 97.9994C18.2097 97.9868 18 97.7669 18 97.5V92C18 91.8646 18.0549 91.735 18.1522 91.6408ZM19 92.5164V97.0232L39.0745 97.9757V93.165L19 92.5164Z" fill="black"/>
<path d="M81.3347 21.8793L50.4493 22.2804C46.0719 22.3372 42.5532 25.9019 42.5532 30.2797V68.1032C42.5532 72.4809 46.0719 76.0456 50.4493 76.1025L81.3347 76.5036C85.2359 76.5543 88.4256 73.4057 88.4256 69.5042V28.8787C88.4256 24.9771 85.2359 21.8286 81.3347 21.8793Z" fill="black"/>
<path d="M76.7999 24.8394L50.0697 25.2268C47.8834 25.2585 46.1277 27.0398 46.1277 29.2264V67.965C46.1277 70.1515 47.8834 71.9329 50.0697 71.9646L76.7999 72.3519C79.5894 72.3924 81.8724 70.1422 81.8724 67.3525V29.8389C81.8724 27.0491 79.5894 24.799 76.7999 24.8394Z" fill="#2F2F2F"/>
<path d="M76 48.5C76 58.0604 70.8513 64 64.5 64C58.1487 64 53 57.0604 53 48.5C53 39.9396 58.1487 33 64.5 33C70.8513 33 76 38.9396 76 48.5Z" fill="black"/>
<path d="M72 49C72 54.5228 69.0899 59 65.5 59C61.9101 59 59 54.5228 59 49C59 43.4772 61.9101 39 65.5 39C69.0899 39 72 43.4772 72 49Z" fill="#474747"/>
<path d="M102.936 57.9363C102.936 57.384 103.384 56.9363 103.936 56.9363H113.851C114.403 56.9363 114.851 57.384 114.851 57.9363V76.1916C114.851 76.7439 114.403 77.1916 113.851 77.1916H103.936C103.384 77.1916 102.936 76.7439 102.936 76.1916V57.9363Z" fill="#1E1D1D"/>
<path d="M99 84C99 83.4477 99.4477 83 100 83H117C117.552 83 118 83.4477 118 84V98C118 98.5523 117.552 99 117 99H100C99.4477 99 99 98.5523 99 98V84Z" fill="#1E1D1D"/>
<path fill-rule="evenodd" clip-rule="evenodd" d="M65.5 34.5C59.5267 34.5 54.5 40.6537 54.5 48.5C54.5 56.3463 59.5267 62.5 65.5 62.5C65.7761 62.5 66 62.7239 66 63C66 63.2761 65.7761 63.5 65.5 63.5C58.7707 63.5 53.5 56.67 53.5 48.5C53.5 40.33 58.7707 33.5 65.5 33.5C65.7761 33.5 66 33.7239 66 34C66 34.2761 65.7761 34.5 65.5 34.5Z" fill="#242222"/>
<path fill-rule="evenodd" clip-rule="evenodd" d="M61.9015 42.8789C61.0453 44.4202 60.5 46.5833 60.5 49C60.5 51.4167 61.0453 53.5798 61.9015 55.1211C62.7672 56.6794 63.8833 57.5 65 57.5C65.2761 57.5 65.5 57.7239 65.5 58C65.5 58.2761 65.2761 58.5 65 58.5C63.3553 58.5 61.9713 57.3059 61.0274 55.6068C60.074 53.8907 59.5 51.5539 59.5 49C59.5 46.4461 60.074 44.1093 61.0274 42.3932C61.9713 40.6941 63.3553 39.5 65 39.5C65.2761 39.5 65.5 39.7239 65.5 40C65.5 40.2761 65.2761 40.5 65 40.5C63.8833 40.5 62.7672 41.3206 61.9015 42.8789Z" fill="#686565"/>
<path fill-rule="evenodd" clip-rule="evenodd" d="M76.5 26.0902C76.5038 26.3663 76.2831 26.5933 76.0069 26.5971L49.9653 26.9588C48.5982 26.9778 47.5 28.0914 47.5 29.4586V67.4999C47.5 67.7761 47.2761 67.9999 47 67.9999C46.7239 67.9999 46.5 67.7761 46.5 67.4999V29.4586C46.5 27.5445 48.0375 25.9855 49.9514 25.9589L75.9931 25.5972C76.2692 25.5934 76.4961 25.8141 76.5 26.0902Z" fill="#373737"/>
<path fill-rule="evenodd" clip-rule="evenodd" d="M41.4999 32.9896C41.5056 33.2657 41.2865 33.4941 41.0104 33.4999L20.9271 33.9183C19.0229 33.958 17.5 35.5129 17.5 37.4175V74.5825C17.5 76.4871 19.0229 78.042 20.9271 78.0817L41.0104 78.5001C41.2865 78.5059 41.5056 78.7343 41.4999 79.0104C41.4941 79.2865 41.2657 79.5056 40.9896 79.4999L20.9063 79.0815C18.4581 79.0305 16.5 77.0312 16.5 74.5825V37.4175C16.5 34.9688 18.458 32.9695 20.9063 32.9185L40.9896 32.5001C41.2657 32.4944 41.4941 32.7135 41.4999 32.9896Z" fill="#373737"/>
<path fill-rule="evenodd" clip-rule="evenodd" d="M89.8828 21C89.8828 20.7239 90.1067 20.5 90.3828 20.5H108C114.904 20.5 120.5 26.0964 120.5 33V95.8286C120.5 102.801 114.795 108.426 107.823 108.327L86.9382 108.031C86.6621 108.027 86.4414 107.8 86.4454 107.524C86.4493 107.248 86.6763 107.027 86.9524 107.031L107.837 107.327C114.251 107.418 119.5 102.244 119.5 95.8286V33C119.5 26.6487 114.351 21.5 108 21.5H90.3828C90.1067 21.5 89.8828 21.2761 89.8828 21Z" fill="black"/>
<path fill-rule="evenodd" clip-rule="evenodd" d="M95.5 29.3476C95.5 24.5269 91.4953 20.6711 86.6781 20.8537L15.716 23.5429C11.6872 23.6956 8.5 27.0059 8.5 31.0375V95.8766C8.5 99.8691 11.6277 103.162 15.6149 103.367L86.5636 107.014C91.423 107.264 95.5 103.391 95.5 98.5254V29.3476ZM86.6403 19.8544C92.0242 19.6503 96.5 23.9598 96.5 29.3476V98.5254C96.5 103.964 91.9434 108.292 86.5122 108.013L15.5636 104.365C11.0447 104.133 7.5 100.401 7.5 95.8766V31.0375C7.5 26.4683 11.1122 22.7166 15.6781 22.5436L86.6403 19.8544Z" fill="black"/>
<path fill-rule="evenodd" clip-rule="evenodd" d="M45.6276 34.7908C45.6276 32.8349 44.0248 31.2586 42.0692 31.2913L17.6908 31.6982C15.2352 31.7392 13.2659 33.7416 13.2659 36.1976V76.4834C13.2659 78.9394 15.2352 80.9418 17.6908 80.9827L42.0692 81.3897C44.0248 81.4223 45.6276 79.846 45.6276 77.8902V34.7908ZM42.0525 30.2914C44.5668 30.2494 46.6276 32.2761 46.6276 34.7908V77.8902C46.6276 80.4048 44.5668 82.4315 42.0525 82.3895L17.6741 81.9826C14.6728 81.9325 12.2659 79.4852 12.2659 76.4834V36.1976C12.2659 33.1958 14.6728 30.7484 17.6741 30.6983L42.0525 30.2914Z" fill="black"/>
<path fill-rule="evenodd" clip-rule="evenodd" d="M18.1522 91.6408C18.2495 91.5466 18.3808 91.4959 18.5161 91.5003L39.5906 92.1811C39.8603 92.1898 40.0745 92.411 40.0745 92.6809V98.5C40.0745 98.6367 40.0185 98.7675 39.9195 98.8618C39.8206 98.9562 39.6873 99.0059 39.5508 98.9994L18.4763 97.9994C18.2097 97.9868 18 97.7669 18 97.5V92C18 91.8646 18.0549 91.735 18.1522 91.6408ZM19 92.5164V97.0232L39.0745 97.9757V93.165L19 92.5164Z" fill="black"/>
<path fill-rule="evenodd" clip-rule="evenodd" d="M56.7698 37.8378C54.7588 40.5482 53.5 44.3163 53.5 48.5C53.5 52.6837 54.7588 56.4518 56.7698 59.1622C58.7809 61.8727 61.5194 63.5 64.5 63.5C70.4648 63.5 75.5 57.9093 75.5 48.5C75.5 39.0907 70.4648 33.5 64.5 33.5C61.5194 33.5 58.7809 35.1273 56.7698 37.8378ZM55.9667 37.2419C58.1179 34.3425 61.1294 32.5 64.5 32.5C71.2377 32.5 76.5 38.7885 76.5 48.5C76.5 58.2115 71.2377 64.5 64.5 64.5C61.1294 64.5 58.1179 62.6575 55.9667 59.7581C53.8155 56.8587 52.5 52.8767 52.5 48.5C52.5 44.1233 53.8155 40.1414 55.9667 37.2419Z" fill="black"/>
<path fill-rule="evenodd" clip-rule="evenodd" d="M61.323 42.2014C60.2068 43.9188 59.5 46.321 59.5 49C59.5 51.679 60.2068 54.0812 61.323 55.7986C62.4424 57.5207 63.9302 58.5 65.5 58.5C67.0698 58.5 68.5576 57.5207 69.677 55.7986C70.7932 54.0812 71.5 51.679 71.5 49C71.5 46.321 70.7932 43.9188 69.677 42.2014C68.5576 40.4793 67.0698 39.5 65.5 39.5C63.9302 39.5 62.4424 40.4793 61.323 42.2014ZM60.4846 41.6564C61.7178 39.7592 63.4799 38.5 65.5 38.5C67.5201 38.5 69.2822 39.7592 70.5154 41.6564C71.7517 43.5584 72.5 46.1561 72.5 49C72.5 51.8439 71.7517 54.4416 70.5154 56.3436C69.2822 58.2408 67.5201 59.5 65.5 59.5C63.4799 59.5 61.7178 58.2408 60.4846 56.3436C59.2483 54.4416 58.5 51.8439 58.5 49C58.5 46.1561 59.2483 43.5584 60.4846 41.6564Z" fill="black"/>
<path fill-rule="evenodd" clip-rule="evenodd" d="M81.3724 29.8389C81.3724 27.3281 79.3177 25.303 76.8072 25.3394L50.077 25.7267C48.1639 25.7545 46.6277 27.3132 46.6277 29.2264V67.965C46.6277 69.8782 48.164 71.4369 50.077 71.4646L76.8072 71.852C79.3177 71.8884 81.3724 69.8633 81.3724 67.3525V29.8389ZM76.7927 24.3395C79.8611 24.295 82.3724 26.7701 82.3724 29.8389V67.3525C82.3724 70.4212 79.8611 72.8964 76.7927 72.8519L50.0625 72.4645C47.6029 72.4289 45.6277 70.4248 45.6277 67.965V29.2264C45.6277 26.7665 47.6029 24.7625 50.0625 24.7269L76.7927 24.3395Z" fill="black"/>
<path fill-rule="evenodd" clip-rule="evenodd" d="M87.9256 28.8787C87.9256 25.2558 84.9637 22.3322 81.3412 22.3792L50.4558 22.7803C46.352 22.8336 43.0532 26.1755 43.0532 30.2797V68.1032C43.0532 72.2073 46.352 75.5492 50.4558 75.6025L81.3412 76.0036C84.9637 76.0507 87.9256 73.127 87.9256 69.5042V28.8787ZM81.3282 21.3793C85.508 21.325 88.9256 24.6985 88.9256 28.8787V69.5042C88.9256 73.6844 85.508 77.0578 81.3282 77.0036L50.4428 76.6024C45.7919 76.542 42.0532 72.7545 42.0532 68.1032V30.2797C42.0532 25.6283 45.7919 21.8408 50.4428 21.7804L81.3282 21.3793Z" fill="black"/>
<path fill-rule="evenodd" clip-rule="evenodd" d="M102.436 57.9363C102.436 57.1079 103.108 56.4363 103.936 56.4363H113.851C114.68 56.4363 115.351 57.1079 115.351 57.9363V76.1916C115.351 77.02 114.68 77.6916 113.851 77.6916H103.936C103.108 77.6916 102.436 77.02 102.436 76.1916V57.9363ZM103.936 57.4363C103.66 57.4363 103.436 57.6601 103.436 57.9363V76.1916C103.436 76.4677 103.66 76.6916 103.936 76.6916H113.851C114.127 76.6916 114.351 76.4677 114.351 76.1916V57.9363C114.351 57.6601 114.127 57.4363 113.851 57.4363H103.936Z" fill="black"/>
<path fill-rule="evenodd" clip-rule="evenodd" d="M98.5 84C98.5 83.1716 99.1716 82.5 100 82.5H117C117.828 82.5 118.5 83.1716 118.5 84V98C118.5 98.8284 117.828 99.5 117 99.5H100C99.1716 99.5 98.5 98.8284 98.5 98V84ZM100 83.5C99.7239 83.5 99.5 83.7239 99.5 84V98C99.5 98.2761 99.7239 98.5 100 98.5H117C117.276 98.5 117.5 98.2761 117.5 98V84C117.5 83.7239 117.276 83.5 117 83.5H100Z" fill="black"/>
</svg>
