<?xml version="1.0" encoding="utf-8"?>
<!-- Generator: Adobe Illustrator 23.0.3, SVG Export Plug-In . SVG Version: 6.00 Build 0)  -->
<svg version="1.1" id="Layer_1" xmlns="http://www.w3.org/2000/svg" xmlns:xlink="http://www.w3.org/1999/xlink" x="0px" y="0px"
	 viewBox="0 0 28.3 28.3" style="enable-background:new 0 0 28.3 28.3;" xml:space="preserve">
<style type="text/css">
	.st0{stroke:#000000;stroke-width:0.2;stroke-miterlimit:10;}
	.st1{fill:#FEFEFE;stroke:#000000;stroke-width:0.2;stroke-miterlimit:10;}
	.st2{fill:#976BCF;stroke:#976BCF;stroke-width:0.3;stroke-miterlimit:10;}
	.st3{fill:#976BCF;}
	.st4{fill:#ECEEEF;}
	.st5{fill:#EAECED;}
	.st6{fill:#EBEDEE;}
	.st7{fill:#E9EBEC;}
	.st8{fill:#F7F9FA;}
	.st9{fill:#F5F7F8;}
	.st10{fill:none;stroke:#020202;stroke-linecap:round;stroke-linejoin:round;stroke-miterlimit:10;}
	.st11{fill:#FFFFFF;}
	.st12{fill:#C9AAF2;}
	.st13{fill:#B28AE4;}
	.st14{fill:#FFB5C0;}
	.st15{fill:#EFEDEE;}
	.st16{fill:#D4D4D5;}
</style>
<path class="st3" d="M27.3,6.3c0-0.1,0-0.3-0.1-0.4c-0.1-0.1-0.2-0.2-0.4-0.2c-0.2,0-0.4-0.1-0.5-0.2c-0.4-0.3-0.9-0.4-1.5-0.4
	l-0.1,0l0.1-0.1c0.2-0.4,0.4-0.8,0.4-1.3v0c0-0.3-0.2-0.5-0.5-0.5s-0.5,0.2-0.5,0.5v0c0,0.5-0.3,1-0.7,1.3l0,0l0,0
	c-0.4-0.2-0.8-0.3-1.2-0.3c-0.4,0-0.8,0.1-1.2,0.3l0,0l0,0c-0.4-0.3-0.7-0.8-0.7-1.3v0c0-0.3-0.2-0.5-0.5-0.5s-0.5,0.2-0.5,0.5v0
	c0,0.5,0.1,0.9,0.4,1.3l0.1,0.1l-0.1,0c-0.6-0.1-1.1,0.1-1.5,0.4c-0.2,0.1-0.3,0.2-0.5,0.2c-0.1,0-0.3,0.1-0.4,0.2s-0.1,0.3-0.1,0.4
	c0.1,0.4,0.3,0.8,0.6,1.1l0.1,0.1l-0.1,0c-0.7,0.1-1.5,0.2-2.2,0.2l-10.6,0c-2.4,0-4.3,1.9-4.3,4.3v4.1c0,0.3,0.2,0.5,0.5,0.5
	s0.5-0.2,0.5-0.5V12C1.4,10.4,2.5,9,4,8.7l0.2,0L4.1,8.8C4,8.9,3.9,8.9,3.8,9C3,9.8,2.5,10.9,2.4,12c0,0,0,0,0,0.1
	c0,0.1,0,0.2,0,0.3l0,1c0,1,0.3,1.9,0.8,2.7c0.5,0.7,1.1,1.4,1.9,1.8l0,0l0,0l0.5,1.7v3.7c0,0.5,0.4,0.9,0.9,0.9h4.1
	c0.3,0,0.6-0.2,0.8-0.4c0.2-0.3,0.2-0.6,0-0.9L11,22.2V19h4.4l0,0c0.1,0.2,0.3,0.5,0.4,0.6l0,0v3.6c0,0.5,0.4,0.9,0.9,0.9h3.7
	c0.3,0,0.6-0.2,0.8-0.4c0.2-0.3,0.2-0.6,0-0.9l-0.3-0.6v-2.6l0,0c0.4-0.4,0.7-0.9,0.9-1.4l0,0l0,0c1.6-1,2.6-2.7,2.6-4.6l0,0l0,0
	c0.7-0.3,1.2-1,1.2-1.8v-0.2c0-0.5-0.2-1-0.5-1.4l0,0l0,0c0,0,0-0.1,0-0.1V8l0.1,0c0,0,0.1,0,0.1,0c0.4,0,0.7-0.1,1-0.2
	C26.8,7.4,27.1,7,27.3,6.3z M20.2,7.8c0-1.1,0.9-2,2-2c1.1,0,2,0.9,2,2v1.8l-0.1,0c-0.1,0-0.3-0.1-0.4-0.1h-2.9
	c-0.1,0-0.3,0-0.4,0.1l-0.1,0V7.8z M18.3,6.5c0.1-0.1,0.3-0.1,0.4-0.2C19,6,19.4,6,19.7,6.1l0.1,0l0,0.1c-0.1,0.2-0.3,0.5-0.3,0.8
	l0,0l0,0c-0.1,0-0.1,0-0.2,0c-0.2,0-0.3,0-0.5-0.1C18.5,6.8,18.4,6.7,18.3,6.5L18.3,6.5L18.3,6.5z M12.5,9c0-0.2,0.2-0.4,0.4-0.4
	h2.3c0.8,0,1.4,0.7,1.4,1.5c0,0.8-0.7,1.5-1.5,1.5h-4.1c-0.3,0-0.6-0.3-0.6-0.6s0.3-0.6,0.6-0.6h0C11.9,10.4,12.5,9.8,12.5,9z
	 M3.9,15.5L3.9,15.5c-0.4-0.7-0.6-1.4-0.6-2.1l0-0.8h4.2c0.3,0,0.6,0.3,0.6,0.6s-0.3,0.6-0.6,0.6h0c-0.8,0-1.4,0.6-1.4,1.4
	c0,0.2-0.2,0.4-0.4,0.4H3.9z M9.2,23.2L9.2,23.2c0-0.2-0.1-0.3-0.1-0.4l-0.3-0.6v-2.6l0,0C9,19.4,9.1,19.2,9.3,19l0,0H10v3.3
	c0,0.1,0,0.2,0.1,0.2l0.3,0.7H9.2z M19,23.2L19,23.2c0-0.2-0.1-0.3-0.1-0.5l-0.2-0.3v-2.9l0,0c0.2-0.2,0.3-0.4,0.5-0.6l0,0l0,0
	c0.3,0,0.6-0.1,0.9-0.1l0.2,0L20.1,19c0,0-0.1,0.1-0.1,0.1c-0.1,0.1-0.1,0.2-0.1,0.3v2.9c0,0.1,0,0.2,0.1,0.2l0.3,0.7H19z
	 M23.5,13.8c-0.1,2.1-1.6,3.8-3.6,4.2l-0.1,0l0-0.1c0.2-0.6,0.4-1.3,0.4-2v-0.6c0-0.3-0.2-0.5-0.5-0.5s-0.5,0.2-0.5,0.5v0.6
	c0,0.8-0.2,1.6-0.6,2.3c0,0-0.1,0.1-0.1,0.1c-0.2,0.3-0.4,0.5-0.6,0.7c-0.1,0.1-0.1,0.2-0.1,0.3v3.2c0,0.1,0,0.2,0.1,0.3l0.2,0.4
	h-1.4v-3.7c0-0.1-0.1-0.3-0.1-0.3c-0.3-0.3-0.5-0.8-0.5-1.3v-1c0-0.3-0.2-0.5-0.5-0.5s-0.5,0.2-0.5,0.5v1c0,0,0,0.1,0,0.1l0,0.1H9.8
	l0-0.1c0.3-0.7,0.4-1.4,0.4-2.1v-0.6c0-0.3-0.2-0.5-0.5-0.5S9.3,15,9.3,15.3v0.6c0,1.2-0.5,2.3-1.3,3.1c-0.1,0.1-0.1,0.2-0.1,0.3
	v2.9c0,0.1,0,0.2,0.1,0.2l0.3,0.7H6.5v-3.7c0,0,0-0.1,0-0.1l-0.6-2c0-0.1-0.1-0.2-0.2-0.3c-0.3-0.2-0.6-0.3-0.9-0.6l-0.1-0.1h1
	c0.8,0,1.4-0.6,1.4-1.4c0-0.2,0.2-0.4,0.4-0.4h0C8.3,14.6,9,14,9,13.1c0-0.8-0.7-1.5-1.5-1.5H3.4l0-0.1c0.2-0.7,0.5-1.3,1-1.9
	C5.2,9,6.1,8.6,7.1,8.6h4.5l0,0.1c0,0.1-0.1,0.2-0.1,0.4c0,0.2-0.2,0.4-0.4,0.4h0c-0.8,0-1.5,0.7-1.5,1.5c0,0.8,0.7,1.5,1.5,1.5h4.1
	c1.3,0,2.4-1.1,2.4-2.4c0-0.5-0.2-1.1-0.5-1.5l-0.1-0.1l0.1,0c0.7-0.1,1.4-0.2,2-0.4l0.1,0v2c0,0,0,0.1,0,0.1l0,0l0,0
	c-0.3,0.4-0.5,0.8-0.5,1.4v0.2c0,1.1,0.9,2,2,2L23.5,13.8L23.5,13.8z M24.7,11.7c0,0.6-0.5,1-1,1h-2.9c-0.6,0-1-0.5-1-1v-0.2
	c0-0.6,0.5-1,1-1h2.9c0.6,0,1,0.5,1,1V11.7z M26.2,6.6c-0.1,0.1-0.2,0.3-0.3,0.3C25.6,7,25.4,7,25.3,7c-0.1,0-0.2,0-0.2,0l0,0l0,0
	c-0.1-0.3-0.2-0.5-0.3-0.8l0-0.1l0.1,0C25,6,25.4,6,25.7,6.3C25.9,6.3,26,6.4,26.2,6.6L26.2,6.6L26.2,6.6z"/>
<path class="st3" d="M21.5,7.5C21.5,7.2,21.3,7,21,7c-0.3,0-0.5,0.2-0.5,0.5S20.8,8,21,8C21.3,8,21.5,7.7,21.5,7.5z"/>
<path class="st3" d="M23.2,7c-0.3,0-0.5,0.2-0.5,0.5S22.9,8,23.2,8h0c0.3,0,0.5-0.2,0.5-0.5S23.5,7,23.2,7z"/>
<path class="st3" d="M21.6,11.7c0-0.3-0.2-0.5-0.5-0.5h0c-0.3,0-0.5,0.2-0.5,0.5s0.2,0.5,0.5,0.5C21.4,12.1,21.6,11.9,21.6,11.7z"/>
<path class="st3" d="M23.8,11.7c0-0.3-0.2-0.5-0.5-0.5h0c-0.3,0-0.5,0.2-0.5,0.5s0.2,0.5,0.5,0.5C23.6,12.1,23.8,11.9,23.8,11.7z"/>
<g>
	<path class="st3" d="M0.9,17.7c-0.1,0-0.3,0.1-0.4,0.2c-0.1,0.1-0.2,0.2-0.2,0.4c0,0.1,0.1,0.3,0.2,0.4c0.1,0.1,0.2,0.2,0.4,0.2
		c0.1,0,0.3-0.1,0.4-0.2s0.2-0.2,0.2-0.4c0-0.1-0.1-0.3-0.2-0.4C1.2,17.7,1.1,17.7,0.9,17.7z"/>
	<path class="st3" d="M0.9,18.7c-0.2,0-0.3-0.1-0.4-0.2c-0.1-0.1-0.2-0.3-0.2-0.4c0-0.1,0.1-0.3,0.2-0.4c0.1-0.1,0.3-0.2,0.4-0.2
		s0.3,0.1,0.4,0.2c0.1,0.1,0.2,0.3,0.2,0.4s-0.1,0.3-0.2,0.4S1.1,18.7,0.9,18.7z M0.9,17.7c-0.1,0-0.2,0.1-0.3,0.1
		c-0.1,0.1-0.1,0.2-0.1,0.3s0.1,0.2,0.1,0.3c0.1,0.1,0.2,0.1,0.3,0.1s0.2-0.1,0.3-0.1c0.1-0.1,0.1-0.2,0.1-0.3s-0.1-0.2-0.1-0.3
		C1.2,17.8,1.1,17.7,0.9,17.7z"/>
</g>
</svg>
