<?xml version="1.0" encoding="utf-8"?>
<!-- Generator: Adobe Illustrator 25.4.1, SVG Export Plug-In . SVG Version: 6.00 Build 0)  -->
<svg version="1.1" id="Solid" xmlns="http://www.w3.org/2000/svg" xmlns:xlink="http://www.w3.org/1999/xlink" x="0px" y="0px"
	 viewBox="0 0 512 512" enable-background="new 0 0 512 512" xml:space="preserve">
<circle cx="256.192" cy="23.976" r="12"/>
<circle cx="192.192" cy="119.976" r="12"/>
<circle cx="464.192" cy="87.976" r="12"/>
<circle cx="24.192" cy="359.976" r="12"/>
<circle cx="24.192" cy="79.976" r="12"/>
<path d="M94.876,315.933c-0.219,0-0.434-0.008-0.648-0.02c-0.213-0.014-0.399-0.062-0.608-0.08l5.585,78.209
	c0.402,5.57,5.086,9.934,10.672,9.934h11.621c5.898,0,10.695-4.797,10.695-10.695V292.329
	c-14.456,12.823-27.772,20.068-32.707,22.506C98.028,315.558,96.446,315.933,94.876,315.933z"/>
<path d="M132.243,192.755c-3.123-1.909-6.148-3.985-8.946-6.322l-37.309-31.086l-15.586-7.793c-0.383-0.191-0.734-0.445-1.039-0.75
	L40.309,117.75c-2.422-2.426-6.758-2.207-8.949,0.391c-1.152,1.375-1.617,3.113-1.305,4.887c5.142,29.202,20,100.856,48.157,147.79
	C123.184,237.917,131.094,206.127,132.243,192.755z M84.614,198.195c0.98-1.969,3.387-2.777,5.359-1.801
	c0.133,0.07,13.629,6.516,19.391,0.754c0.273-2.363-6.414-6.695-14.438-9.379c-2.094-0.699-3.227-2.965-2.527-5.059
	s2.945-3.234,5.059-2.527c4.258,1.418,18.289,6.66,20.148,14.535c0.68,2.871-0.242,5.742-2.586,8.086
	c-3.551,3.551-8.129,4.707-12.578,4.707c-7.984,0-15.551-3.715-16.039-3.957C84.43,202.566,83.63,200.171,84.614,198.195z
	 M68.192,175.976c-2.209,0-4-3.582-4-8c0-4.418,1.791-8,4-8s4,3.582,4,8C72.192,172.394,70.401,175.976,68.192,175.976z"/>
<path d="M170.216,198.882c-4.094-4.609-12.648-12.371-23.883-12.535c-3.16,0.008-5.785,2.57-6.012,5.957
	c-1.219,17.902-11.004,53.266-62.871,88.941c-0.711,0.488-1.125,1.289-1.051,2.031c0.891,8.812,4.457,23.734,18.355,24.652
	c0.465,0.039,0.898-0.125,1.18-0.262c11.102-5.488,66.906-36.262,75.793-103.898C171.958,202.003,171.407,200.222,170.216,198.882z"
	/>
<path d="M497.704,261.757l-0.711-3.793c-2.734-14.59-12.293-27.262-25.566-33.898l-26.391-13.195
	c-9.391-4.695-19.375-8.121-29.672-10.18c-15.375-3.078-30.969-3.078-46.344,0l-7.727,1.543c-5.699,1.141-11.531,1.895-17.336,2.234
	l-97.785,6.695c-9.633,0.555-19.145-0.688-28.27-3.734c-6.871-2.289-14.031-3.453-21.281-3.453h-16.946
	c-0.02,0.28,0.018,0.556-0.019,0.836c-4.729,36.005-21.98,62.125-39.465,79.954v62.506c4.246,3.539,8.839,6.652,13.789,9.125
	c1.105,0.551,1.891,1.582,2.133,2.793l23.227,116.133c0.75,3.734-0.414,7.574-3.109,10.27c-0.637,0.637-0.988,1.484-0.988,2.383
	s0.352,1.746,0.988,2.383l7.84,7.84c0.828,0.832,2.051,1.164,3.195,0.887l14.867-3.715c6.512-1.629,11.543-6.922,12.816-13.48
	c6.387-32.871,21.242-116.789,21.242-185.914c0-2.211,1.789-4,4-4s4,1.789,4,4c0,27.477-2.33,57.202-5.532,85.203
	c29.659,16.562,66.608,36.009,128.976,28.641c-17.164-23.651-30.838-59.653-27.436-114.094c0.137-2.207,2.066-3.891,4.242-3.742
	c2.203,0.137,3.879,2.035,3.742,4.242c-6.148,98.422,45.363,133.648,67.797,144.227c7.418,3.496,12.211,11.02,12.211,19.172v5.238
	c0,5.656-2.203,10.973-6.203,14.973l-7.656,7.656c-1.359,1.359-2.141,3.246-2.141,5.172c0,4.031,3.281,7.312,7.312,7.312h28.531
	c3.152,0,5.941-2.008,6.941-5l5.422-16.266l8.277-16.652c4.723-9.441,6.184-20.344,4.113-30.699l-1.367-6.844
	c-2.223-11.102-1.039-22.469,3.422-32.879l10.809-25.219c4.082-9.531,4.945-20.316,2.434-30.375
	c-2.66-10.645-2.137-21.734,1.52-32.07l6.188-17.535C498.587,278.535,499.247,270,497.704,261.757z"/>
<path d="M416.333,474.179c2.488-2.488,3.859-5.797,3.859-9.316v-5.238c0-5.148-2.922-9.719-7.625-11.938
	c-9.932-4.683-25.194-13.982-39.204-30.526c-5.067,0.695-10.016,1.266-14.774,1.639c11.889,20.562,22.601,34.243,31.115,39.552
	c4.062,2.535,6.488,6.793,6.488,11.387v3.535c0,5.734-3.656,10.805-9.094,12.617l-11.281,3.762
	c-2.168,0.719-3.625,2.742-3.625,5.027c0,2.922,2.375,5.297,5.297,5.297h28.647c-1.2-2.183-1.944-4.651-1.944-7.312
	c0-4.09,1.594-7.938,4.484-10.828L416.333,474.179z"/>
<path d="M140.192,357.406v35.875c0,3.276-0.921,6.312-2.408,8.993l9.662,64.425c0.625,4.184-0.785,8.465-3.773,11.453l-4.555,4.555
	c-1.148,1.148-1.715,2.73-1.555,4.344c0.16,1.609,1.027,3.051,2.375,3.949l11.02,7.344c1.254,0.84,2.816,1.102,4.293,0.742
	l14.894-3.719c-3.876-4.461-3.812-11.188,0.43-15.43c0.801-0.801,1.145-1.938,0.922-3.043l-22.848-114.246
	C145.714,361.089,142.906,359.316,140.192,357.406z"/>
</svg>
