<?xml version="1.0" encoding="UTF-8" standalone="no"?> <svg id="Layer_1" data-name="Layer 1" xmlns="http://www.w3.org/2000/svg" viewBox="0 0 64 64"><defs><style>.cls-1{fill:#fec89a;}.cls-2{fill:#f9dcc4;}.cls-3{fill:#fcd5ce;}.cls-4{fill:#1d3557;}.cls-5{fill:#f8edeb;}</style></defs><path class="cls-1" d="M56.15,30.9a3.64,3.64,0,0,0-.61-4l-1-1.11a4.92,4.92,0,0,1-1.14-2.46L53.23,22a4.62,4.62,0,0,0-2.95-3.39L48.84,18a6.5,6.5,0,0,1-2-1.33,3.87,3.87,0,0,1-3.65,3.15,12.16,12.16,0,0,1,4.16,2.85c2,2,3.18,4.17,3.18,5.77a1.91,1.91,0,0,1-2,2.05h0c-1.58,0-3.84-1.25-5.77-3.18-.07-.06-.12-.12-.18-.18V30A8.51,8.51,0,0,1,34,38.5H30A8.51,8.51,0,0,1,21.5,30V27.14c-.06.06-.11.12-.18.18-1.92,1.93-4.19,3.18-5.77,3.18h0a1.93,1.93,0,0,1-2.05-2.05c0-1.6,1.21-3.81,3.18-5.77a12.16,12.16,0,0,1,4.16-2.85,3.87,3.87,0,0,1-3.65-3.15,6.57,6.57,0,0,1-2,1.33l-1.46.61A4.63,4.63,0,0,0,10.77,22l-.21,1.35a4.86,4.86,0,0,1-1.14,2.44l-1,1.12a3.64,3.64,0,0,0-.61,4l.6,1.27a4.51,4.51,0,0,1,.39,2.62l-.21,1.35a4,4,0,0,0,1.82,3.79l1.25.88A5.83,5.83,0,0,1,13.53,43l.58,1.25A5.48,5.48,0,0,0,18.06,47l1.57.31a7.23,7.23,0,0,1,2.81,1.19l1.21.86a6.81,6.81,0,0,0,5.21,1l1.56-.3a8.05,8.05,0,0,1,3.17,0l1.54.3a6.83,6.83,0,0,0,5.22-1l1.21-.86a7.23,7.23,0,0,1,2.81-1.19L45.94,47a5.48,5.48,0,0,0,4-2.78L50.47,43a5.78,5.78,0,0,1,1.83-2.15l1.25-.88a4,4,0,0,0,1.82-3.8l-.21-1.34a4.51,4.51,0,0,1,.39-2.62Z"/><path class="cls-2" d="M17.76,15.76a.5.5,0,0,1,.34.41,2.93,2.93,0,0,0,2.79,2.66,2.6,2.6,0,0,0,1.37-.41.5.5,0,0,1,.38-.06.51.51,0,0,1,.32.23,2.75,2.75,0,0,0,2.37,1.47,2.68,2.68,0,0,0,2-1,.5.5,0,0,1,.38-.17h.11a.51.51,0,0,1,.37.37A4,4,0,0,0,32,22.5a4,4,0,0,0,3.78-3.2.51.51,0,0,1,.37-.37.5.5,0,0,1,.49.16,2.68,2.68,0,0,0,2,1A2.75,2.75,0,0,0,41,18.59a.51.51,0,0,1,.32-.23.5.5,0,0,1,.38.06,2.6,2.6,0,0,0,1.37.41,2.93,2.93,0,0,0,2.79-2.66.5.5,0,0,1,.34-.41C49.58,14.7,51.5,13.33,51.5,12s-1.92-2.7-5.26-3.76a.5.5,0,0,1-.34-.41,2.93,2.93,0,0,0-2.79-2.66,2.6,2.6,0,0,0-1.37.41.5.5,0,0,1-.38.06A.51.51,0,0,1,41,5.41a2.75,2.75,0,0,0-2.37-1.47,2.68,2.68,0,0,0-2,1,.5.5,0,0,1-.49.16.51.51,0,0,1-.37-.37A4,4,0,0,0,32,1.5a4,4,0,0,0-3.78,3.2.51.51,0,0,1-.37.37.5.5,0,0,1-.49-.16,2.68,2.68,0,0,0-2-1A2.75,2.75,0,0,0,23,5.41a.51.51,0,0,1-.32.23.5.5,0,0,1-.38-.06,2.6,2.6,0,0,0-1.37-.41A2.93,2.93,0,0,0,18.1,7.83a.5.5,0,0,1-.34.41C14.42,9.3,12.5,10.67,12.5,12S14.42,14.7,17.76,15.76Z"/><path class="cls-3" d="M30,37.5h4A7.5,7.5,0,0,0,41.5,30V19.66a3.68,3.68,0,0,1-2.83,1.4,3.61,3.61,0,0,1-2.18-.74,4.76,4.76,0,0,1-9,0,3.61,3.61,0,0,1-2.18.74,3.68,3.68,0,0,1-2.83-1.4V30A7.5,7.5,0,0,0,30,37.5Z"/><path class="cls-4" d="M21.69,59.5H16.31l-.42.83A1.49,1.49,0,0,0,16,61.79a1.51,1.51,0,0,0,1.28.71h3.52A1.51,1.51,0,0,0,22,61.79a1.49,1.49,0,0,0,.07-1.46Z"/><path class="cls-5" d="M48.44,29.5h0a.93.93,0,0,0,1-1.05c0-1.3-1.16-3.34-2.88-5.07a10.85,10.85,0,0,0-4.12-2.72v5c.26.31.55.63.88,1C45.11,28.34,47.14,29.5,48.44,29.5Z"/><path class="cls-5" d="M14.76,29.23a1.07,1.07,0,0,0,.79.27h0c1.3,0,3.33-1.16,5.06-2.88.33-.34.62-.66.88-1v-5a10.85,10.85,0,0,0-4.12,2.72c-1.72,1.73-2.88,3.77-2.88,5.07A1.06,1.06,0,0,0,14.76,29.23Z"/><path class="cls-2" d="M59.17,24.41a6.2,6.2,0,0,1-1.36-3l-.24-1.68A5.76,5.76,0,0,0,54,15.41l-1.74-.77a8.13,8.13,0,0,1-.82-.45,10.62,10.62,0,0,1-3.57,2.07,5.75,5.75,0,0,0,1.39.83l1.44.61a5.55,5.55,0,0,1,3.54,4.16l.21,1.33a4,4,0,0,0,.92,2l1,1.1a4.6,4.6,0,0,1,.75,5.07l-.6,1.27a3.65,3.65,0,0,0-.31,2L56.35,36a5,5,0,0,1-2.22,4.77l-1.25.88a4.61,4.61,0,0,0-1.51,1.76l-.58,1.23A6.44,6.44,0,0,1,46.14,48l-1.57.31a6.37,6.37,0,0,0-2.43,1l-1.21.87a7.88,7.88,0,0,1-6,1.18L33.4,51a6.9,6.9,0,0,0-2.79,0l-1.56.3a7.89,7.89,0,0,1-6-1.18l-1.21-.86a6.23,6.23,0,0,0-2.43-1L17.86,48a6.44,6.44,0,0,1-4.65-3.34l-.58-1.24a4.66,4.66,0,0,0-1.51-1.75l-1.25-.88A5,5,0,0,1,7.65,36l.21-1.36a3.65,3.65,0,0,0-.31-2L7,31.32a4.6,4.6,0,0,1,.75-5.07l1-1.11a3.91,3.91,0,0,0,.92-1.95l.21-1.34a5.56,5.56,0,0,1,3.53-4.15l1.46-.61a5.88,5.88,0,0,0,1.38-.83,10.62,10.62,0,0,1-3.57-2.07,8.13,8.13,0,0,1-.82.45L10,15.41a5.79,5.79,0,0,0-3.61,4.32l-.23,1.68a6.13,6.13,0,0,1-1.37,3L3.69,25.8a4.8,4.8,0,0,0-.76,5.13l.72,1.6a5.83,5.83,0,0,1,.47,3.18L3.86,37.4A5.18,5.18,0,0,0,6.1,42.27l1.49,1.11A6.93,6.93,0,0,1,9.75,46l.71,1.56a6.61,6.61,0,0,0,4.79,3.53l1.88.39A8.39,8.39,0,0,1,20.48,53L21.93,54a8,8,0,0,0,6.32,1.3l1.86-.39a9.62,9.62,0,0,1,3.78,0l1.86.39A8,8,0,0,0,42.07,54L43.52,53a8.39,8.39,0,0,1,3.35-1.48l1.88-.39a6.61,6.61,0,0,0,4.79-3.53L54.25,46a6.93,6.93,0,0,1,2.16-2.62l1.49-1.11a5.18,5.18,0,0,0,2.24-4.87l-.25-1.69a5.78,5.78,0,0,1,.46-3.19l.71-1.58a4.8,4.8,0,0,0-.75-5.14Z"/><path class="cls-1" d="M47.07,52.46a7.37,7.37,0,0,0-3,1.3l-1.45,1.07-.17.1V58.5h5V52.37Z"/><path class="cls-1" d="M21.33,54.83l-1.45-1.07a7.37,7.37,0,0,0-2.95-1.3l-.43-.09V58.5h5V54.94Z"/><path class="cls-4" d="M47.69,59.5H42.31l-.42.83A1.49,1.49,0,0,0,42,61.79a1.51,1.51,0,0,0,1.28.71h3.52A1.51,1.51,0,0,0,48,61.79a1.49,1.49,0,0,0,.07-1.46Z"/><path d="M28,25a3,3,0,0,0-3,3h2a1,1,0,0,1,2,0h2A3,3,0,0,0,28,25Z"/><path d="M37,28h2a3,3,0,0,0-6,0h2a1,1,0,0,1,2,0Z"/><path d="M4.7,21.2a4.56,4.56,0,0,1-1,2.26L2.53,24.84a6.27,6.27,0,0,0-1,6.71l.71,1.59a4.28,4.28,0,0,1,.35,2.35l-.25,1.7A6.63,6.63,0,0,0,5.2,43.47l1.49,1.11a5.28,5.28,0,0,1,1.69,2l.71,1.56A8.12,8.12,0,0,0,15,52.56H15v6.19l-.45.9A3,3,0,0,0,17.24,64h3.52a3,3,0,0,0,2.69-4.34l-.45-.9V56.31a9.72,9.72,0,0,0,5.56.49l1.85-.39a8.05,8.05,0,0,1,3.17,0l1.87.39a10.13,10.13,0,0,0,2,.2A9.62,9.62,0,0,0,41,56.32v2.44l-.45.9A3,3,0,0,0,43.24,64h3.52a3,3,0,0,0,2.69-4.34l-.45-.9V52.57h0a8.12,8.12,0,0,0,5.86-4.38l.71-1.56a5.28,5.28,0,0,1,1.69-2l1.49-1.11a6.64,6.64,0,0,0,2.82-6.29l-.25-1.68a4.3,4.3,0,0,1,.35-2.36l.71-1.58a6.27,6.27,0,0,0-1-6.71l-1.14-1.4a4.49,4.49,0,0,1-1-2.25l-.24-1.68A7.24,7.24,0,0,0,54.57,14l-1.74-.78-.11,0A3.05,3.05,0,0,0,53,12c0-2-2-3.72-5.75-5a4.34,4.34,0,0,0-4.14-3.32,3.88,3.88,0,0,0-1.31.22,4.16,4.16,0,0,0-3.13-1.45,4.07,4.07,0,0,0-2,.51,5.22,5.22,0,0,0-9.4,0,4.07,4.07,0,0,0-2-.51A4.16,4.16,0,0,0,22.2,3.89a3.88,3.88,0,0,0-1.31-.22A4.34,4.34,0,0,0,16.75,7C13,8.28,11,10,11,12a3.05,3.05,0,0,0,.28,1.21.39.39,0,0,0-.11.06L9.43,14a7.27,7.27,0,0,0-4.49,5.49ZM21.61,61.53a1,1,0,0,1-.85.47H17.24a1,1,0,0,1-.85-.47,1,1,0,0,1-.05-1l.28-.55h4.76l.28.55A1,1,0,0,1,21.61,61.53ZM17,58V53a7,7,0,0,1,2.59,1.18l1.41,1V58Zm30.61,3.53a1,1,0,0,1-.85.47H43.24a1,1,0,0,1-.85-.47,1,1,0,0,1,0-1l.28-.55h4.76l.28.55A1,1,0,0,1,47.61,61.53ZM43,58V55.21l1.42-1.05A7,7,0,0,1,47,53v5ZM17.91,8.72a1,1,0,0,0,.69-.82A2.29,2.29,0,0,1,22,6a1,1,0,0,0,.78.12,1,1,0,0,0,.62-.46,2.28,2.28,0,0,1,1.94-1.22,2.19,2.19,0,0,1,1.65.8,1,1,0,0,0,1.73-.41A3.53,3.53,0,0,1,32,2a3.53,3.53,0,0,1,3.29,2.83A1,1,0,0,0,37,5.24a2.19,2.19,0,0,1,1.65-.8,2.28,2.28,0,0,1,1.94,1.22,1,1,0,0,0,.62.46A1,1,0,0,0,42,6,2.29,2.29,0,0,1,45.4,7.9a1,1,0,0,0,.69.82C49.71,9.86,51,11.17,51,12s-1.29,2.14-4.91,3.28a1,1,0,0,0-.69.82A2.29,2.29,0,0,1,42,18a1,1,0,0,0-.78-.12,1,1,0,0,0-.62.46,2.28,2.28,0,0,1-1.94,1.22,2.19,2.19,0,0,1-1.65-.8,1,1,0,0,0-1.73.41A3.53,3.53,0,0,1,32,22a3.53,3.53,0,0,1-3.29-2.83,1,1,0,0,0-.74-.72l-.23,0a1,1,0,0,0-.76.34,2.19,2.19,0,0,1-1.65.8,2.28,2.28,0,0,1-1.94-1.22,1,1,0,0,0-.62-.46A1,1,0,0,0,22,18a2.29,2.29,0,0,1-3.39-1.9,1,1,0,0,0-.69-.82C14.29,14.14,13,12.83,13,12S14.29,9.86,17.91,8.72ZM54.66,34.86l.21,1.35a3.49,3.49,0,0,1-1.61,3.31L52,40.41a6.15,6.15,0,0,0-2,2.34L49.44,44a5,5,0,0,1-3.59,2.51l-1.57.31a7.88,7.88,0,0,0-3,1.27l-1.21.86a6.29,6.29,0,0,1-4.83.94l-1.54-.3a8.32,8.32,0,0,0-3.37,0l-1.56.3a6.24,6.24,0,0,1-4.82-.94l-1.21-.85a7.74,7.74,0,0,0-3-1.28l-1.56-.31A5,5,0,0,1,14.57,44L14,42.74a6.18,6.18,0,0,0-2-2.34l-1.25-.87a3.52,3.52,0,0,1-1.61-3.32l.21-1.35A5,5,0,0,0,8.9,32l-.59-1.27a3.08,3.08,0,0,1,.53-3.45l1-1.11a5.46,5.46,0,0,0,1.26-2.7l.21-1.34a4.09,4.09,0,0,1,2.64-3l1.45-.61a7.19,7.19,0,0,0,1.58-.92A4.42,4.42,0,0,0,19.31,20a14.74,14.74,0,0,0-3,2.32C14.27,24.38,13,26.72,13,28.45A2.42,2.42,0,0,0,15.55,31h0c1.54,0,3.57-1,5.44-2.69V30a9,9,0,0,0,9,9h4a9,9,0,0,0,9-9V28.31C44.87,30,46.9,31,48.44,31h0A2.42,2.42,0,0,0,51,28.45c0-1.73-1.27-4.07-3.32-6.13a14.74,14.74,0,0,0-3-2.32,4.42,4.42,0,0,0,2.37-2.45,7.19,7.19,0,0,0,1.58.92l1.45.61a4.09,4.09,0,0,1,2.64,3l.21,1.34a5.46,5.46,0,0,0,1.26,2.7l1,1.11a3.1,3.1,0,0,1,.54,3.45L55.09,32A5,5,0,0,0,54.66,34.86ZM21,21.38v4.09c-.22.25-.46.52-.74.79C18.38,28.14,16.51,29,15.56,29h0a.64.64,0,0,1-.44-.12.65.65,0,0,1-.11-.43c0-.95.85-2.83,2.74-4.71A11.42,11.42,0,0,1,21,21.38ZM34,31a2,2,0,0,1-4,0H28a4,4,0,0,0,3,3.86V37H30a7,7,0,0,1-7-7V20.8a4,4,0,0,0,4.3.25,5.22,5.22,0,0,0,9.4,0A4,4,0,0,0,41,20.8V30a7,7,0,0,1-7,7H33V34.86A4,4,0,0,0,36,31Zm9-5.53V21.38a11.42,11.42,0,0,1,3.26,2.36C48.15,25.62,49,27.5,49,28.45a.64.64,0,0,1-.12.44.65.65,0,0,1-.43.11h0c-.95,0-2.82-.86-4.7-2.74C43.46,26,43.22,25.72,43,25.47Zm-36.32-4,.24-1.68a5.32,5.32,0,0,1,3.31-3.94L12,15.1c.19-.09.36-.2.54-.3a10.4,10.4,0,0,0,2.61,1.56,4.53,4.53,0,0,1-.54.27l-1.45.61a6.08,6.08,0,0,0-3.84,4.53l-.21,1.35a3.38,3.38,0,0,1-.8,1.7l-1,1.11a5.09,5.09,0,0,0-.82,5.61l.59,1.26a3,3,0,0,1,.27,1.76l-.21,1.35a5.49,5.49,0,0,0,2.43,5.25l1.25.87a4.21,4.21,0,0,1,1.34,1.56l.59,1.25a6.94,6.94,0,0,0,5,3.61l1.57.31a5.59,5.59,0,0,1,2.23,1l1.21.86A8.19,8.19,0,0,0,27.46,52a8.73,8.73,0,0,0,1.69-.17l1.56-.3a6.64,6.64,0,0,1,2.59,0l1.54.3a8.37,8.37,0,0,0,6.38-1.26l1.21-.87a5.72,5.72,0,0,1,2.23-.94l1.58-.31a7,7,0,0,0,5-3.62l.57-1.23A4.18,4.18,0,0,1,53.17,42l1.25-.89a5.46,5.46,0,0,0,2.43-5.24l-.21-1.35a3.05,3.05,0,0,1,.26-1.75l.61-1.27a5.11,5.11,0,0,0-.83-5.61l-1-1.11a3.37,3.37,0,0,1-.8-1.71l-.21-1.33a6.08,6.08,0,0,0-3.84-4.54l-1.45-.61a4.53,4.53,0,0,1-.54-.27,10.73,10.73,0,0,0,2.59-1.54,5.77,5.77,0,0,0,.56.27l1.74.78a5.29,5.29,0,0,1,3.31,3.93l.24,1.68a6.43,6.43,0,0,0,1.47,3.24l1.14,1.4a4.31,4.31,0,0,1,.68,4.61l-.71,1.59a6.22,6.22,0,0,0-.51,3.47l.25,1.68a4.65,4.65,0,0,1-2,4.4L56.11,43A7.27,7.27,0,0,0,53.8,45.8l-.71,1.56a6.13,6.13,0,0,1-4.44,3.24L46.77,51a8.94,8.94,0,0,0-3.54,1.57l-1.46,1.07a7.5,7.5,0,0,1-5.91,1.21L34,54.45a9.93,9.93,0,0,0-4,0l-1.85.39a7.52,7.52,0,0,1-5.93-1.22l-1.44-1.06A9.05,9.05,0,0,0,17.23,51l-1.88-.39a6.13,6.13,0,0,1-4.44-3.24L10.2,45.8A7.27,7.27,0,0,0,7.89,43L6.4,41.87a4.65,4.65,0,0,1-2-4.39l.25-1.7a6.2,6.2,0,0,0-.51-3.46l-.71-1.6a4.31,4.31,0,0,1,.68-4.61l1.14-1.38A6.5,6.5,0,0,0,6.68,21.48Z"/></svg>