<?xml version="1.0" encoding="utf-8"?>
<!-- Generator: Adobe Illustrator 22.1.0, SVG Export Plug-In . SVG Version: 6.00 Build 0)  -->
<svg version="1.1" xmlns="http://www.w3.org/2000/svg" xmlns:xlink="http://www.w3.org/1999/xlink" x="0px" y="0px"
	 viewBox="0 0 512 512" style="enable-background:new 0 0 512 512;" xml:space="preserve">
<style type="text/css">
	.st0{fill:none;}
	.st1{fill:#DCA0C8;}
	.st2{fill:#EFCEE2;}
	.st3{display:none;}
	.st4{display:inline;fill:none;stroke:#000000;stroke-width:16;stroke-linejoin:round;stroke-miterlimit:10;}
	.st5{display:inline;}
	.st6{display:inline;fill:none;stroke:#000000;stroke-width:16;stroke-linecap:round;stroke-linejoin:round;stroke-miterlimit:10;}
	.st7{display:inline;fill:none;stroke:#000000;stroke-width:16;stroke-miterlimit:10;}
	.st8{fill:url(#);}
	.st9{fill:#FCC67C;}
	.st10{fill:#FBB040;}
	.st11{fill:#F1F2F2;}
	.st12{fill:#603913;}
	.st13{fill:#BCBEC0;}
	.st14{fill:#F5E0CD;}
	.st15{fill:#9B1B30;}
	.st16{fill:#B92025;}
	.st17{fill:#AF2024;}
	.st18{fill:#58595B;}
	.st19{fill:#D1D3D4;}
	.st20{fill:#B08874;}
	.st21{fill:#F0D0B4;}
	.st22{fill:#2273A9;}
	.st23{fill:#E6E7E8;}
	.st24{fill:#F7E84E;}
	.st25{fill:#03AAA5;}
	.st26{fill:#005C9A;}
	.st27{fill:#F1DBCB;}
	.st28{fill:#D17A39;}
	.st29{fill:#414042;}
	.st30{fill:#808285;}
	.st31{fill:#E3D24D;}
	.st32{fill:#754C29;}
	.st33{fill:#8B5E3C;}
	.st34{fill:#A7A9AC;}
	.st35{fill:#CEA28B;}
	.st36{fill:#82D1DF;}
	.st37{fill:#2889AF;}
	.st38{fill:url(#New_Pattern_Swatch_54);}
	.st39{fill:url(#New_Pattern_Swatch_53);}
	.st40{fill:#1B9251;}
	.st41{fill:#D6C84C;}
	.st42{fill:#039791;}
	.st43{fill:#006838;}
	.st44{fill:#E4B69D;}
	.st45{fill:#EFC7B0;}
	.st46{fill:none;stroke:#82D1DF;stroke-width:16;stroke-linejoin:round;stroke-miterlimit:10;}
	.st47{fill:#3C2415;}
	.st48{fill:#2981BD;}
	.st49{fill:#6F94CD;}
	.st50{fill:#594A42;}
	.st51{fill:#C49A6C;}
	.st52{fill:#FFDE17;}
	.st53{fill:#FFF200;}
	.st54{fill:#CF9E76;}
	.st55{fill:#DFB28B;}
	.st56{fill:#891820;}
	.st57{fill:#9B1C23;}
	.st58{fill:#F9ED32;}
	.st59{fill:#F7941D;}
	.st60{fill:#EF4136;}
	.st61{fill:#ED1C24;}
	.st62{fill:#939598;}
	.st63{fill:#6D6E71;}
	.st64{fill:none;stroke:#000000;stroke-width:16;stroke-linejoin:round;stroke-miterlimit:10;}
	.st65{fill:#009444;}
	.st66{fill:#FFFFFF;}
	.st67{fill:#A97C50;}
	.st68{fill:#CCCCCC;}
	.st69{fill:#726658;}
	.st70{fill:#C92127;}
	.st71{fill:#AA1F30;}
	.st72{fill:#BE1E2D;}
	.st73{fill:none;stroke:#000000;stroke-width:16;stroke-linecap:round;stroke-linejoin:round;stroke-miterlimit:10;}
	.st74{fill:none;stroke:#000000;stroke-width:16;stroke-miterlimit:10;}
	.st75{display:inline;fill:none;}
</style>
<pattern  x="-2304" width="108" height="108" patternUnits="userSpaceOnUse" id="New_Pattern_Swatch_53" viewBox="0 -108 108 108" style="overflow:visible;">
	<g>
		<rect y="-108" class="st0" width="108" height="108"/>
		<rect y="-108" class="st1" width="108" height="108"/>
	</g>
</pattern>
<pattern  x="-2304" width="108" height="108" patternUnits="userSpaceOnUse" id="New_Pattern_Swatch_54" viewBox="0 -108 108 108" style="overflow:visible;">
	<g>
		<rect y="-108" class="st0" width="108" height="108"/>
		<rect y="-108" class="st2" width="108" height="108"/>
	</g>
</pattern>
<g id="Layer_2">
</g>
<g id="Layer_1">
</g>
<g id="original" class="st3">
	<path class="st4" d="M72,168l1.7-5.1c8.5-25.6,32.5-42.9,59.5-42.9h0c21.6,0,41.7,11.1,53.2,29.5l14.3,22.9
		c4.5,7.2,12.5,11.6,21,11.6h0c6.6,0,12.9-2.6,17.5-7.3L392,24v125.5c0,58-23,113.5-64,154.5l0,0h160v0c0,101.6-82.4,184-184,184
		h-16V360h-32c-75.1,0-136-60.9-136-136v0l0,0c-26.5-5.3-51.8-15.1-75-29l-5-3L72,168z"/>
	<polyline class="st4" points="200,176 296,24 296,120 	"/>
	<line class="st4" x1="376" y1="472" x2="328" y2="376"/>
	<line class="st4" x1="472" y1="384" x2="360" y2="344"/>
	<path class="st6" d="M72,280l-2.1-3.1C50.4,247.6,40,213.2,40,178.1v0c0-27.7,6.4-54.9,18.8-79.7L64,88"/>
	<path class="st4" d="M64,88L64,88c0-28.4,18.8-53.4,46.2-61.2L120,24v0.8c0,31.7-23.3,58.5-54.6,63L64,88z"/>
	<path class="st4" d="M48,128l6.7-5.3c20.6-16.5,48.5-20.6,72.9-10.8l0.4,0.2l0,0c-19.6,19.6-48.6,26.5-74.9,17.7L48,128z"/>
	<path class="st4" d="M50.6,120l-5.3-6.7C28.7,92.7,24.6,64.9,34.4,40.4l0.2-0.4l0,0C54.2,59.6,61,88.6,52.2,114.9L50.6,120z"/>
</g>
<g id="color">
	<path class="st43" d="M50.6,120l-5.3-6.7C28.7,92.7,24.6,64.9,34.4,40.4l0.2-0.4l0,0C54.2,59.6,61,88.6,52.2,114.9L50.6,120z"/>
	<polygon class="st39" points="296,216 296,24 200,176 200,216 	"/>
	<path class="st38" d="M488,304c0,25.4-5.1,49.6-14.4,71.6c-2.1,5-4.4,9.8-6.9,14.5c-8.6,16.3-19.6,31.1-32.5,44
		c-14.5,14.5-31.5,26.7-50.3,35.7c-4.8,2.3-9.7,4.4-14.7,6.3c-20.2,7.7-42.2,11.9-65.1,11.9h-16V360h-32c-75.1,0-136-60.9-136-136
		c-13.2-2.6-26.2-6.4-38.7-11.3C68.7,207.9,56.6,202,45,195l-5-3l32-24l1.7-5.1c8.5-25.6,32.5-42.9,59.5-42.9
		c10.8,0,21.3,2.8,30.4,7.9c9.2,5.1,17.1,12.5,22.8,21.6l14.3,22.9c4.5,7.3,12.5,11.7,21,11.7c3.3,0,6.5-0.7,9.5-1.9
		c3-1.2,5.7-3,8-5.4L392,24v125.5c0,58-23,113.5-64,154.5H488z"/>
	<path class="st39" d="M383.9,469.8c-4.8,2.3-9.7,4.4-14.7,6.3l-48.3-96.6l14.3-7.2L383.9,469.8z"/>
	<path class="st39" d="M473.6,375.6c-2.1,5-4.4,9.8-6.9,14.5l-109.3-38.6l5.3-15.1L473.6,375.6z"/>
	<g>
		<path class="st65" d="M72,288c-2.6,0-5.1-1.3-6.7-3.6l-2.1-3.1C42.8,250.6,32,214.9,32,178.1c0-28.8,6.8-57.5,19.7-83.3l5.2-10.4
			c2-4,6.8-5.6,10.7-3.6c4,2,5.6,6.8,3.6,10.7L66,102c-11.8,23.5-18,49.8-18,76.1c0,33.7,9.9,66.3,28.6,94.4l2.1,3.1
			c2.5,3.7,1.5,8.6-2.2,11.1C75.1,287.6,73.5,288,72,288z"/>
	</g>
	<path class="st43" d="M64,88L64,88c0-28.4,18.8-53.4,46.2-61.2L120,24v0.8c0,31.7-23.3,58.5-54.6,63L64,88z"/>
	<path class="st43" d="M48,128l6.7-5.3c20.6-16.5,48.5-20.6,72.9-10.8l0.4,0.2l0,0c-19.6,19.6-48.6,26.5-74.9,17.7L48,128z"/>
</g>
<g id="outline">
	<path class="st64" d="M73.7,162.9L73.7,162.9c8.5-25.6,32.5-42.9,59.5-42.9h0c21.6,0,41.7,11.1,53.2,29.5l14.3,22.9
		c4.5,7.2,12.5,11.6,21,11.6h0c6.6,0,12.9-2.6,17.5-7.3L392,24v125.5c0,58-23,113.5-64,154.5l0,0h160v0c0,101.6-82.4,184-184,184
		h-16V360h-32c-75.1,0-136-60.9-136-136v0l0,0c-26.5-5.3-51.8-15.1-75-29l-5-3l27.7-20.8C70.5,169.1,72.6,166.2,73.7,162.9z"/>
	<polyline class="st64" points="201.5,173.6 296,24 296,120 	"/>
	<line class="st64" x1="376.6" y1="473.1" x2="328" y2="376"/>
	<line class="st64" x1="470.1" y1="383.3" x2="360" y2="344"/>
	<path class="st73" d="M40.5,191.6c-0.3-4.5-0.5-9-0.5-13.6v0c0-27.7,6.4-54.9,18.8-79.7L64,88"/>
	<path class="st73" d="M72,280l-2.1-3.1c-16.9-25.3-26.9-54.4-29.3-84.5"/>
	<path class="st64" d="M64,88L64,88c0-28.4,18.8-53.4,46.2-61.2L120,24v0.8c0,31.7-23.3,58.5-54.6,63L64,88z"/>
	<path class="st64" d="M47.2,128.1l6.7-5.3c20.6-16.5,48.5-20.6,72.9-10.8l0.4,0.2l0,0c-19.6,19.6-48.6,26.5-74.9,17.7L47.2,128.1z"
		/>
	<path class="st64" d="M49.9,119.7l-5.3-6.7C28,92.4,23.9,64.5,33.7,40l0.2-0.4l0,0c19.6,19.6,26.5,48.6,17.7,74.9L49.9,119.7z"/>
</g>
<g id="outline_copy" class="st3">
	<path class="st5" d="M288,116.7l-54.4,54.4c-3.2,3.2-7.4,4.9-11.9,4.9c-3.7,0-7.3-1.2-10.1-3.4l76.4-121V116.7z M465.8,373.3
		l-103.1-36.8l-5.4,15.1l101.4,36.2c-17.6,32.4-45.1,58.7-78.5,74.8l-45.1-90.2l-14.3,7.2l44.7,89.3c-19.2,7.2-39.9,11.1-61.5,11.1
		h-8V360c0-4.4-3.6-8-8-8h-32c-70.6,0-128-57.4-128-128c0-3.8-2.7-7.1-6.4-7.8c-23.7-4.7-46.2-13.1-67.2-24.9l18.1-13.6
		c4.1-3.1,7.2-7.3,8.8-12.2c0,0,0,0,0,0c7.5-22.4,28.3-37.4,51.9-37.4c19,0,36.4,9.6,46.4,25.7l14.3,22.9c6,9.6,16.4,15.4,27.8,15.4
		c8.8,0,17-3.4,23.2-9.6L384,43.3v106.2c0,56.2-21.9,109.1-61.7,148.9c-2.3,2.3-3,5.7-1.7,8.7s4.2,4.9,7.4,4.9h151.8
		C478.8,333.7,473.9,354.3,465.8,373.3z"/>
	<path class="st5" d="M78.7,275.6l-2.1-3.1c-16-24-25.7-52-28-80.7c0-0.1,0-0.2,0-0.3c0-0.1,0-0.2,0-0.3c-0.3-4.3-0.5-8.6-0.5-13
		c0-26.3,6.2-52.6,18-76.1l5.2-10.4c2-4,0.4-8.8-3.6-10.7c-4-2-8.8-0.4-10.7,3.6l-5.2,10.4C38.8,120.5,32,149.3,32,178.1
		c0,4.7,0.2,9.5,0.5,14.2c0,0.1,0,0.3,0,0.4c0,0.1,0,0.2,0,0.4c2.5,31.5,13.1,62,30.7,88.3l2.1,3.1c1.5,2.3,4.1,3.6,6.7,3.6
		c1.5,0,3.1-0.4,4.4-1.3C80.1,284.2,81.1,279.2,78.7,275.6z"/>
	<g class="st5">
		<path d="M111.1,34.9c-19.8,6.2-34.4,23-38.1,43C92.5,71.8,107.3,55,111.1,34.9z"/>
	</g>
	<g class="st5">
		<path d="M64.9,124.7c15.8,2.6,31.8-0.7,45.2-9.1C94.5,113,78.4,116.3,64.9,124.7z"/>
	</g>
	<g class="st5">
		<path d="M37.3,56.7c-2.5,15.6,0.7,31.7,9.1,45.2C49.1,86.2,45.8,70.1,37.3,56.7z"/>
	</g>
</g>
</svg>
