<?xml version="1.0" encoding="UTF-8" standalone="no"?> <svg width="512" height="512" viewBox="0 0 512 512" fill="none" xmlns="http://www.w3.org/2000/svg">
<path d="M368 216H401.5C408.52 216 415.45 217.579 421.777 220.62C428.105 223.661 433.667 228.086 438.052 233.568L446.003 243.506C449.122 247.405 453.078 250.552 457.578 252.715C462.078 254.878 467.007 256 472 256V256C476.243 256 480.313 257.686 483.314 260.686C486.314 263.687 488 267.757 488 272C488 276.243 486.314 280.313 483.314 283.314C480.313 286.314 476.243 288 472 288C464.391 288 456.856 286.501 449.827 283.589C442.797 280.678 436.409 276.41 431.029 271.029L408 248L368 216Z" fill="#B97A0A"/>
<path d="M73.89 121.406L64 128L32 136V168L56 184H96L120 248C120 268.939 125.691 289.485 136.464 307.44L144 320L152 424L136 432V448H176L192 336H204.917C222.905 336 240.824 333.794 258.275 329.431L328 312L368 352L416 384L432 424L416 432L424 448H456V384L432 336L426.554 286.984C424.877 271.913 419.369 257.523 410.554 245.184V245.184C402.34 233.683 391.5 224.31 378.934 217.842C366.368 211.375 352.44 208.001 338.307 208H297.6C270.12 208 242.893 202.757 217.379 192.551L217.254 192.501C190.45 181.779 167.755 162.804 152.454 138.324V138.324C147.42 130.268 140.419 123.625 132.11 119.02C123.801 114.415 114.458 112 104.958 112V112C93.9006 112 83.0906 115.273 73.89 121.406V121.406Z" fill="#D78E0C"/>
<path d="M120 152L106.087 200.7C104.727 205.459 104.837 210.518 106.403 215.213V215.213C108.033 220.102 111.161 224.354 115.342 227.367C119.523 230.379 124.546 232 129.7 232H134.3C139.455 232.001 144.479 230.379 148.661 227.365C152.842 224.352 155.97 220.098 157.6 215.208C159.165 210.513 159.275 205.454 157.916 200.695L144 152H120Z" fill="#B97A0A"/>
<path d="M472 248C468.206 248.009 464.459 247.16 461.039 245.517C457.619 243.873 454.615 241.477 452.252 238.509L444.3 228.57C439.178 222.137 432.668 216.945 425.256 213.383C417.844 209.821 409.723 207.981 401.5 208H376.761C364.625 202.73 351.537 200.007 338.307 200H297.6C271.129 200.022 244.899 194.969 220.331 185.115L220.225 185.073C194.969 175.032 173.595 157.162 159.238 134.084C154.699 126.821 148.749 120.544 141.74 115.622C134.731 110.701 126.805 107.236 118.433 105.433C110.06 103.63 101.411 103.526 92.998 105.126C84.5845 106.727 76.5778 109.999 69.452 114.75L60.715 120.575L30.06 128.239C28.3291 128.672 26.7925 129.671 25.6945 131.077C24.5965 132.483 24 134.216 24 136V168C24 169.317 24.3251 170.614 24.9465 171.775C25.5679 172.936 26.4663 173.925 27.562 174.656L51.562 190.656C52.876 191.533 54.4204 192 56 192H90.456L97.263 210.152C97.758 216.162 99.9155 221.916 103.494 226.77L112.009 249.47C112.273 271.358 118.347 292.782 129.609 311.552L136.173 322.493L143.616 419.246L132.427 424.846C131.097 425.51 129.979 426.531 129.197 427.794C128.415 429.058 128.001 430.514 128 432V448C128 450.122 128.843 452.157 130.343 453.657C131.843 455.157 133.878 456 136 456H176C177.926 456 179.787 455.305 181.241 454.043C182.696 452.782 183.647 451.037 183.919 449.131L198.938 344H204.917C223.559 343.998 242.131 341.711 260.217 337.192L325.548 320.86L362.348 357.66C362.721 358.032 363.129 358.367 363.567 358.66L409.5 389.278L421.843 420.137L412.427 424.845C410.529 425.794 409.087 427.458 408.416 429.471C407.745 431.484 407.901 433.68 408.85 435.578L416.85 451.578C417.514 452.906 418.535 454.023 419.797 454.804C421.06 455.585 422.515 455.999 424 456H456C458.122 456 460.157 455.157 461.657 453.657C463.157 452.157 464 450.122 464 448V384C464 382.758 463.711 381.533 463.155 380.422L439.793 333.7L434.505 286.1C434.432 285.439 434.34 284.782 434.253 284.123C445.308 291.882 458.494 296.031 472 296C478.365 296 484.47 293.471 488.971 288.971C493.471 284.47 496 278.365 496 272C496 265.635 493.471 259.53 488.971 255.029C484.47 250.529 478.365 248 472 248V248ZM113.992 212.678C112.932 209.513 112.859 206.101 113.78 202.893L126.035 160H137.965L150.221 202.893C150.925 205.357 151.047 207.951 150.578 210.471C150.109 212.99 149.062 215.367 147.519 217.413C145.975 219.459 143.978 221.119 141.684 222.262C139.391 223.405 136.863 224 134.3 224H129.7C126.224 224.003 122.835 222.911 120.016 220.878C117.196 218.846 115.088 215.977 113.992 212.678V212.678ZM58.422 176L40 163.719V142.246L65.94 135.761C66.8303 135.541 67.676 135.169 68.44 134.661L78.33 128.067C83.6745 124.504 89.6795 122.05 95.9896 120.85C102.3 119.65 108.786 119.728 115.066 121.08C121.345 122.432 127.289 125.031 132.546 128.722C137.803 132.412 142.265 137.12 145.67 142.567C146.103 143.26 146.562 143.93 147.006 144.614C146.055 144.218 145.036 144.011 144.006 144.004H120C118.262 144.004 116.571 144.57 115.183 145.616C113.795 146.663 112.786 148.133 112.308 149.804L103.4 180.99C102.803 179.516 101.78 178.254 100.462 177.365C99.1435 176.476 97.59 176.001 96 176H58.422ZM448 385.889V440H428.944L426.733 435.578L435.578 431.155C437.373 430.258 438.765 428.718 439.478 426.843C440.191 424.967 440.173 422.892 439.428 421.029L423.428 381.029C422.827 379.527 421.784 378.242 420.438 377.344L373.1 345.783L333.66 306.343C332.682 305.366 331.469 304.66 330.137 304.292C328.805 303.924 327.4 303.907 326.06 304.243L256.334 321.67C239.518 325.872 222.25 327.998 204.917 328H192C190.074 328 188.213 328.695 186.759 329.957C185.304 331.219 184.353 332.963 184.081 334.869L169.062 440H144V436.944L155.578 431.155C157.001 430.444 158.179 429.325 158.963 427.941C159.746 426.558 160.1 424.972 159.978 423.386L151.978 319.386C151.882 318.149 151.499 316.95 150.861 315.886L143.325 303.326C133.298 286.613 128.001 267.49 128 248C128 247.041 127.828 246.089 127.491 245.191L125.431 239.698C126.846 239.891 128.273 239.991 129.701 239.998H134.301C139.34 239.998 144.31 238.828 148.821 236.581C153.331 234.333 157.258 231.07 160.292 227.047C163.327 223.024 165.387 218.352 166.309 213.398C167.231 208.444 166.991 203.343 165.607 198.498L152.46 152.482C168.278 173.725 189.688 190.154 214.3 199.937L214.405 199.979C240.858 210.586 269.099 216.025 297.6 216H338.309C358.192 215.999 377.377 223.33 392.192 236.59C407.008 249.849 416.413 268.107 418.609 287.868L424.055 336.883C424.16 337.822 424.431 338.734 424.855 339.578L448 385.889ZM472 280C465.439 280.018 458.94 278.734 452.878 276.224C446.816 273.713 441.313 270.025 436.686 265.373L425.376 254.063C425.244 253.931 425.104 253.812 424.965 253.691C419.36 242.396 411.588 232.313 402.092 224.016C407.814 224.088 413.448 225.43 418.587 227.946C423.726 230.462 428.242 234.089 431.807 238.565L439.758 248.504C443.616 253.35 448.521 257.262 454.104 259.945C459.687 262.628 465.805 264.015 472 264C474.122 264 476.157 264.843 477.657 266.343C479.157 267.843 480 269.878 480 272C480 274.122 479.157 276.157 477.657 277.657C476.157 279.157 474.122 280 472 280Z" fill="black"/>
<path d="M88 152C94.0751 152 99 147.075 99 141C99 134.925 94.0751 130 88 130C81.9249 130 77 134.925 77 141C77 147.075 81.9249 152 88 152Z" fill="black"/>
</svg>
