<?xml version="1.0" encoding="utf-8"?>
<!-- Generator: Adobe Illustrator 25.2.3, SVG Export Plug-In . SVG Version: 6.00 Build 0)  -->
<svg version="1.1" id="Two_tone" xmlns="http://www.w3.org/2000/svg" xmlns:xlink="http://www.w3.org/1999/xlink" x="0px" y="0px"
	 viewBox="0 0 512 512" enable-background="new 0 0 512 512" xml:space="preserve">
<path fill="#FFBA08" d="M359.645,398.164c-8.88-2.08-16.88-3.44-23.52-4.24c1.76-18.88,2.16-39.12-0.16-57.84c-8-64-40-24-40-24
	c-2.08-10.4-4.4-20.24-6.88-29.68l11.44-9.12c6.48-5.2,7.92-14.48,3.28-21.44l-34.08-51.12c0.96-4.88,0.72-10.08-1.2-15.12
	l-3.52-9.44c-4.72-12.56-17.76-19.6-30.72-16.96c-0.4,0-0.88,0.16-1.28,0.24c-2.72,0.64-5.36,1.28-8,1.84
	c0.56-3.68,1.68-7.12,3.36-10.32c2-4.08,4.8-7.84,8.4-10.96c15.92-13.76,11.2-27.92,11.2-27.92c0-24-32-48-32-48
	c0-0.72-0.08-1.52-0.16-2.16c-2-14.56-23.84-21.84-23.84-21.84c-32-56-112-16-112-16c-1.92,0-3.68,0.08-5.28,0.32
	c-7.44,0.8-11.92,3.52-14.64,6.32c-5.44,5.84-11.44,11.12-18.48,15.04c-7.2,4-13.68,10.08-9.6,18.32c0,0-2,0-4,2s-4,6-4,14
	c0,16,16,40,8,48c-1.6,1.6-1.92,3.84-1.44,6.4c2.72,13.44,21.92,14.32,27.04,1.6l4.88-12.24c0.96-2.32,1.28-4.8,0.88-7.2
	c-0.08-0.56-0.16-1.2-0.32-1.84c7.52,11.92,18.48,31.36,20.4,46.08c-1.2-0.32-2.4-0.56-3.44-0.8c-8.96-2.16-10.48,8.64-16,16
	c-6,8-24,8-8,32c4,6,10.4,10.56,18.64,14l-0.16,0.48c1.68,11.2,4,20.72,5.04,24c0.32,1.04,0.24,2.08-0.24,2.96l-9.92,19.84
	c-2.96,5.92-0.56,13.12,5.36,16.08c3.36,1.68,5.68,4.8,6.4,8.4l4,19.68c1.2,6.24,8.88,8.56,13.36,4.08c1.6-1.6,3.6-2.32,5.52-2.32
	v0.08v122.48c0,6-4.08,11.28-9.92,12.72c-11.12,2.8-18.64,12.72-18.64,23.84c0,1.36,0.08,2.8,0.32,4.16l0.8,4.88
	c2,11.92,12.24,20.64,24.32,20.64h43.36h7.76h19.2c11.44,0,20.8-9.36,20.8-20.8v-1.36c0,7.84,6.32,14.16,14.16,14.16h23.92
	c1.28,0,2.56-0.16,3.76-0.48l69.36-18.96c10.8-2.96,19.28-11.28,22.32-22.08c1.28-4.48,2.64-10,4-16.32
	c7.44,0.64,15.2,1.92,23.12,3.76c63.04,14.48,135.36,62.08,135.36,62.08C477.965,439.204,406.845,409.124,359.645,398.164z"/>
<path fill="#FFBA08" d="M335.965,336.084c-8-64-40-24-40-24c-2.08-10.4-4.4-20.24-6.88-29.68l-2.64,2.08
	c-7.6,6.16-18.88,4-23.84-4.4l-2.24-3.84l-30.16-51.76c-48.16,6.8-119.36,13.04-155.6-2.4l-0.16,0.48c1.68,11.2,4,20.72,5.04,24
	c0.32,1.04,0.24,2.08-0.24,2.96l-9.92,19.84c-2.96,5.92-0.56,13.12,5.36,16.08c3.36,1.68,5.68,4.8,6.4,8.4l4,19.68
	c1.2,6.24,8.88,8.56,13.36,4.08c1.6-1.6,3.6-2.32,5.52-2.32c4.08,0,8,3.12,8,7.92v2.72c0,5.2,4.88,8.96,9.84,7.68l19.2-4.8
	c1.92-0.48,3.6-1.6,4.64-3.28l14.32-21.44l-7.36,139.92c-0.4,7.44-4.8,14.16-11.44,17.52l-6.24,3.12
	c-8.72,4.32-13.28,14.16-10.88,23.68c2.32,9.28,10.64,15.76,20.16,15.76h7.76h19.2c11.44,0,20.8-9.36,20.8-20.8v-1.36
	c0,7.84,6.32,14.16,14.16,14.16h23.92c1.28,0,2.56-0.16,3.76-0.48l69.36-18.96c10.8-2.96,19.28-11.28,22.32-22.08
	c1.28-4.48,2.64-10,4-16.32c2.56-12.4,5.12-27.84,6.64-44.32C337.885,375.044,338.285,354.804,335.965,336.084z"/>
<path fill="#F48C06" d="M268.605,305.924c0,5.76-3.12,11.36-8.72,14.16l-45.6,137.2c-1.6,4.48-2.4,9.2-2.4,14v12
	c0,4.88-1.68,9.28-4.4,12.8h-1.36c-7.82,0-14.16-6.34-14.16-14.16v-10.64c0-4.8,0.8-9.52,2.4-14l45.6-137.2
	c5.6-2.8,8.72-8.4,8.72-14.16c0-2.96-0.8-6-2.64-8.72l-6.08-9.12h8.959c6.848,0,13.243,3.422,17.041,9.12l0,0
	C267.805,299.924,268.605,302.964,268.605,305.924z"/>
<path fill="#FAA307" d="M303.805,251.844c4.64,6.96,3.2,16.24-3.28,21.44l-11.44,9.12l-2.64,2.08c-7.6,6.16-18.88,4-23.84-4.4
	l-2.24-3.84l-30.16-51.76c6.16-0.88,11.92-1.76,17.2-2.56c11.6-1.84,20.08-10.64,22.32-21.2L303.805,251.844z"/>
<path fill="#FAA307" d="M234.285,159.204c12.96-2.64,26,4.4,30.72,16.96l3.52,9.44c1.92,5.04,2.16,10.24,1.2,15.12
	c-2.24,10.56-10.72,19.36-22.32,21.2c-5.28,0.8-11.04,1.68-17.2,2.56c-48.16,6.8-119.36,13.04-155.6-2.4
	c-8.24-3.44-14.64-8-18.64-14c-16-24,2-24,8-32c5.52-7.36,7.04-18.16,16-16c1.04,0.24,2.24,0.48,3.44,0.8
	c21.84,4.8,67.68,10.72,116.64,4.56c3.52,7.44,8.64,13.76,15.92,18.64c10.96,7.36,11.92,1.2,9.68-7.52
	c-1.28-5.12-1.52-10.32-0.64-15.28c2.64-0.56,5.28-1.2,8-1.84C233.405,159.364,233.885,159.204,234.285,159.204z"/>
<path fill="#F48C06" d="M269.725,200.724c-2.24,10.56-10.72,19.36-22.32,21.2c-5.28,0.8-11.04,1.68-17.2,2.56
	c-48.16,6.8-119.36,13.04-155.6-2.4c-7.68-3.2-13.76-7.36-17.76-12.8c37.36,13.2,104.8,7.2,151.04,0.64
	c6.16-0.88,11.92-1.76,17.2-2.56c11.6-1.84,20.08-10.64,22.32-21.2c0.96-4.88,0.72-10.08-1.2-15.12l-3.52-9.44
	c-0.4-0.96-0.8-1.92-1.36-2.8c10.4,0.48,19.76,7.12,23.68,17.36l3.52,9.44C270.445,190.644,270.685,195.844,269.725,200.724z"/>
<path fill="#F48C06" d="M287.885,228.004c-4,5.84-10.32,10.16-18,11.36c-5.28,0.8-11.04,1.68-17.2,2.56
	c-3.68,0.48-7.52,1.04-11.44,1.52l-11.04-18.96c6.16-0.88,11.92-1.76,17.2-2.56c11.6-1.84,20.08-10.64,22.32-21.2L287.885,228.004z"
	/>
<path fill="#FAA307" d="M295.405,309.444l-6.32,5.04l-2.64,2.08c-7.7,6.066-18.985,3.923-23.924-4.544l-2.156-3.696l-19.704-33.816
	c-6.247-10.72-18.225-16.785-30.547-15.326c-45.305,5.363-101.718,8.253-133.589-4.218l2.72-5.44c0.48-0.88,0.56-1.92,0.24-2.96
	c-1.04-3.28-3.36-12.8-5.04-24l0.16-0.48c36.24,15.44,107.44,9.2,155.6,2.4l30.16,51.76l2.156,3.696
	c4.939,8.467,16.224,10.61,23.924,4.544l2.64-2.08C291.325,291.044,293.485,300.004,295.405,309.444z"/>
<path fill="#FFBA08" d="M359.645,398.164c-8.88-2.08-16.88-3.44-23.52-4.24c-1.52,16.48-4.08,31.92-6.64,44.32
	c7.44,0.64,15.2,1.92,23.12,3.76c63.04,14.48,135.36,62.08,135.36,62.08C477.965,439.204,406.845,409.124,359.645,398.164z"/>
<path fill="#F48C06" d="M359.645,398.164c-1.52,14.88-3.84,28.72-6.16,40.08c-0.24,1.28-0.56,2.56-0.88,3.76
	c-7.92-1.84-15.68-3.12-23.12-3.76c2.56-12.4,5.12-27.84,6.64-44.32C342.765,394.724,350.765,396.084,359.645,398.164z"/>
<path fill="#FAA307" d="M336.125,393.924c-1.52,16.48-4.08,31.92-6.64,44.32c-1.36,6.32-2.72,11.84-4,16.32
	c-3.04,10.8-11.52,19.12-22.32,22.08l-69.36,18.96c-1.2,0.32-2.48,0.48-3.76,0.48h-23.92c-7.84,0-14.16-6.32-14.16-14.16v-9.84
	h14.08c1.28,0,2.56-0.16,3.76-0.48l69.36-18.96c10.8-2.96,19.28-11.28,22.32-22.08c1.28-4.48,2.64-10,4-16.32
	c2.56-12.4,5.12-27.84,6.64-44.32c1.76-18.88,2.16-39.12-0.16-57.84c-0.48-4.16-1.12-7.84-1.84-11.12
	c9.68-3.84,21.44-0.32,25.84,35.12C338.285,354.804,337.885,375.044,336.125,393.924z"/>
<path fill="#FAA307" d="M111.965,325.924c0,5.2,4.88,8.96,9.84,7.68l19.2-4.8c1.92-0.48,3.6-1.6,4.64-3.28l14.32-21.44l-7.36,139.92
	c-0.4,7.44-4.8,14.16-11.44,17.52l-6.24,3.12c-8.72,4.32-13.28,14.16-10.88,23.68c2.32,9.28,10.64,15.76,20.16,15.76h-43.36
	c-12.08,0-22.32-8.72-24.32-20.64l-0.8-4.88c-0.24-1.36-0.32-2.8-0.32-4.16c0-11.12,7.52-21.04,18.64-23.84
	c5.84-1.44,9.92-6.72,9.92-12.72v-122.48v-0.08c4.08,0,8,3.12,8,7.92V325.924z"/>
<path fill="#F48C06" d="M159.965,304.084l-1.36,26.08l-12.96,19.36c-1.04,1.68-2.72,2.8-4.64,3.28l-19.2,4.8
	c-4.96,1.28-9.84-2.48-9.84-7.68v-2.72c0-4.8-3.92-7.92-8-7.92v-24c4.08,0,8,3.12,8,7.92v2.72c0,5.2,4.88,8.96,9.84,7.68l19.2-4.8
	c1.92-0.48,3.6-1.6,4.64-3.28L159.965,304.084z"/>
<path fill="#FAA307" d="M248.685,305.924c0,5.76-3.12,11.36-8.72,14.16l-45.6,137.2c-1.6,4.48-2.4,9.2-2.4,14v12
	c0,11.44-9.36,20.8-20.8,20.8h-20.4c11.44,0,20.8-9.36,20.8-20.8v-12c0-4.8,0.8-9.52,2.4-14l45.6-137.2c5.6-2.8,8.72-8.4,8.72-14.16
	c0-0.276-0.076-0.657-0.214-1.12c-2.472-8.291,3.243-16.72,11.894-16.72h0l6.08,9.12
	C247.885,299.924,248.685,302.964,248.685,305.924z"/>
<path fill="#FAA307" d="M63.005,114.804c0.16,0.64,0.24,1.28,0.32,1.84c0.4,2.4,0.08,4.88-0.88,7.2l-4.88,12.24
	c-5.12,12.72-24.32,11.84-27.04-1.6c-0.48-2.56-0.16-4.8,1.44-6.4c8-8-8-32-8-48c0-8,2-12,4-14s4-2,4-2
	c-4.08-8.24,2.4-14.32,9.6-18.32c7.04-3.92,13.04-9.2,18.48-15.04c2.72-2.8,7.2-5.52,14.64-6.32c1.28,11.36,1.6,26.72-2.72,39.68
	c-18,24-11.04,41.04-8.96,50.64V114.804z"/>
<path fill="#FAA307" d="M215.965,184.084c-7.28-4.88-12.4-11.2-15.92-18.64c-6.64-13.92,3.12-74.08,15.76-103.52
	c0.08,0.64,0.16,1.44,0.16,2.16c0,0,32,24,32,48c0,0,4.72,14.16-11.2,27.92c-3.6,3.12-6.4,6.88-8.4,10.96
	c-1.68,3.2-2.8,6.64-3.36,10.32c-0.88,4.96-0.64,10.16,0.64,15.28C227.885,185.284,226.925,191.444,215.965,184.084z"/>
<path fill="#F48C06" d="M242.076,92.938c-11.421,16.467-26.249,30.074-43.16,40.22c-1.535,14.681-1.428,26.925,1.129,32.286
	c3.52,7.44,8.64,13.76,15.92,18.64c10.96,7.36,11.92,1.2,9.68-7.52c-1.28-5.12-1.52-10.32-0.64-15.28
	c0.56-3.68,1.68-7.12,3.36-10.32c2-4.08,4.8-7.84,8.4-10.96c15.92-13.76,11.2-27.92,11.2-27.92
	C247.965,105.533,245.543,99.001,242.076,92.938z"/>
<path fill="#FFBA08" d="M83.405,160.884c-1.92-14.72-12.88-34.16-20.4-46.08v-0.08c-2.08-9.6-9.04-26.64,8.96-50.64
	c4.32-12.96,4-28.32,2.72-39.68c1.6-0.24,3.36-0.32,5.28-0.32c0,0,80-40,112,16c0,0,21.84,7.28,23.84,21.84
	c-12.64,29.44-22.4,89.6-15.76,103.52C151.085,171.604,105.245,165.684,83.405,160.884z"/>
<path fill="#FAA307" d="M79.59,146.875c1.83,4.868,3.247,9.651,3.815,14.009c21.84,4.8,67.68,10.72,116.64,4.56
	c-2.557-5.361-2.665-17.604-1.129-32.286C163.936,154.145,120.137,160.399,79.59,146.875z"/>
<path fill="#FFBA08" d="M102.379,182.94c-7.918-8.067-31.894-3.02-23.963,5.06C86.333,196.067,110.309,191.02,102.379,182.94z"/>
<path fill="#995B39" d="M487.965,512.084c1.5,0,3.004-0.422,4.32-1.27c2.66-1.707,4.066-4.82,3.586-7.945
	c-11.488-74.687-96.973-107.264-151.086-115.831c1.211-17.042,1.24-34.971-0.882-51.947c-3.16-25.285-10.539-39.227-22.555-42.617
	c-7.582-2.16-14.816,0.688-20.457,4.422c-0.881-3.857-1.858-7.65-2.822-11.452l7.439-5.95c9.793-7.832,11.934-21.613,4.977-32.055
	l-32.457-48.683c0.552-5.333-0.059-10.779-2-15.958l-3.551-9.469c-5.404-14.407-19.442-23.271-34.394-22.642
	c-0.033-0.046-0.069-0.098-0.102-0.144c1.187-1.606,2.5-3.133,4.047-4.476c16.738-14.535,14.988-30.16,13.922-35.016
	c-0.672-23.129-23.742-44.102-32.336-51.125c-2.617-15.215-19.164-23.48-26.219-26.348C168.934-11.994,108.168,1.662,78.051,16.115
	c-10.406,0.332-18.41,3.414-23.809,9.172c-5.746,6.129-10.996,10.402-16.516,13.441c-12.691,6.988-15.27,15.184-14.949,21.25
	c-3.57,3.246-6.812,9.199-6.812,20.105c0,8.02,2.996,16.695,5.891,25.086c1.949,5.637,5.207,15.074,4.453,17.258
	c-1.973,1.969-5.059,6.363-3.594,13.625c1.879,9.406,9.391,16.059,19.129,16.953c10.141,0.969,19.441-4.684,23.16-13.969
	l1.098-2.748c3.05,5.972,5.425,11.446,7.049,16.274c-6.518,2.2-10.057,8.833-12.202,12.942c-1.117,2.141-2.172,4.16-3.383,5.777
	c-0.695,0.926-2.461,2.086-4.172,3.211c-4.215,2.77-9.984,6.562-11.531,14.164c-1.348,6.637,1.016,14.219,7.445,23.863
	c4.066,6.099,10.177,10.968,17.838,14.829c1.365,8.358,3.076,15.843,4.236,20.011l-9.203,18.402
	c-2.391,4.781-2.773,10.207-1.082,15.277s5.258,9.18,10.031,11.566c1.117,0.562,1.898,1.582,2.145,2.809l3.945,19.715
	c1.148,5.77,5.363,10.41,10.992,12.117c2.575,0.782,5.229,0.806,7.754,0.287v110.33c0,2.34-1.586,4.371-3.855,4.938
	c-16.402,4.102-27.074,20.375-24.293,37.051l0.824,4.938c2.633,15.816,16.184,27.293,32.215,27.293h43.379h7.727h19.168
	c9.413,0,17.709-4.601,22.976-11.601c3.473,2.258,7.595,3.601,12.036,3.601h23.926c1.973,0,3.938-0.262,5.836-0.781l69.328-18.906
	c13.504-3.684,24.219-14.297,27.969-27.695c0.796-2.844,1.638-6.121,2.491-9.724c63.428,8.6,147.005,63.218,147.876,63.787
	C484.899,511.643,486.43,512.084,487.965,512.084z M295.516,267.002l-11.331,9.06c-0.002,0.002-0.005,0.004-0.007,0.006
	l-2.736,2.188c-1.844,1.477-4.125,2.059-6.461,1.621c-2.32-0.434-4.254-1.793-5.445-3.836l-26.486-45.404
	c1.862-0.288,3.813-0.536,5.654-0.83c8.872-1.418,16.572-6.236,21.994-13.203l26.475,39.711
	C299.492,259.795,298.778,264.389,295.516,267.002z M62.621,203.647c-5.453-8.18-5.188-11.266-5.078-11.797
	c0.219-1.078,2.566-2.625,4.641-3.984c2.723-1.793,5.812-3.82,8.18-6.98c1.996-2.66,3.469-5.484,4.77-7.977
	c0.98-1.879,2.465-4.719,2.957-5.047c5.715,1.375,26.738,5.996,57.445,7.645c4.531,0.309,8.18-3.145,8.418-7.559
	s-3.148-8.18-7.559-8.418c-20.784-1.115-36.659-3.61-46.143-5.439c-0.744-3.06-1.783-6.224-2.967-9.422
	c1.995,0.247,4.004,0.409,6.059,0.263c8.691-0.621,16.289-4.793,22-9.18c1.812,4.156,4.605,8.402,8.895,11.754
	c5.012,3.91,11.078,5.875,18.125,5.875c3.598,0,7.449-0.512,11.543-1.535c4.285-1.07,6.891-5.414,5.82-9.703
	c-1.074-4.285-5.43-6.887-9.703-5.82c-7.07,1.758-12.41,1.297-15.891-1.391c-1.208-0.931-2.183-2.128-2.98-3.438
	c2.962-2.905,4.812-6.941,4.812-11.41c0-8.824-7.176-16-16-16s-16,7.176-16,16c0,1.312,0.204,2.569,0.503,3.791
	c-3.642,2.606-7.923,4.801-12.308,5.1c-5.023,0.336-9.789-1.801-14.539-6.547c-0.362-0.362-0.819-0.537-1.228-0.815
	c-2.01-3.584-4.036-6.964-5.981-10.097c-0.16-0.685-0.236-1.224-0.42-1.966c-2.316-9.363-5.488-22.188,8.371-40.664
	c2.652-3.535,1.938-8.551-1.598-11.199c-3.539-2.652-8.547-1.926-11.199,1.598c-18.414,24.555-13.66,43.777-11.105,54.105
	c0.406,1.637,0.781,3.082,0.957,4.336c0.152,1.074,0.023,2.133-0.387,3.152l-4.883,12.215c-1.312,3.281-4.516,4.215-6.84,3.984
	c-1.48-0.137-4.008-0.809-4.867-4.219c7.062-8.23,2.73-20.77-1.461-32.914c-2.465-7.141-5.016-14.523-5.016-19.859
	c0-5.414,1.078-7.523,1.5-8.141c2.18-0.418,4.113-1.727,5.305-3.652c1.457-2.359,1.59-5.305,0.352-7.785
	c-0.414-0.828-1.68-3.355,6.324-7.762c7.035-3.875,13.539-9.125,20.469-16.516c2.543-2.711,7.402-4.145,14.051-4.145
	c1.238,0,2.465-0.289,3.57-0.84c3-1.488,73.637-35.918,101.484,12.809c0.977,1.711,2.547,3,4.414,3.621
	c3.914,1.305,18.531,7.914,18.531,16.41c0,2.512,1.188,4.883,3.195,6.395c8.012,6.035,28.805,25.27,28.805,41.605
	c0,0.734,0.16,1.656,0.359,2.367c0.109,0.391,2.57,9.676-8.789,19.539c-7.741,6.724-12.629,15.762-14.335,25.541
	c-0.044,0.198-0.058,0.393-0.087,0.595c-0.777,4.843-0.843,9.845,0.027,14.856c-17.176-14.449-17.176-41.914-17.176-70.898
	c0-4.418-3.582-8-8-8s-8,3.582-8,8c0,18.826,0.005,38.007,4.866,54.468c-6.924,0.639-13.946,1.147-21.108,1.364
	c-4.414,0.133-7.887,3.82-7.754,8.238c0.129,4.332,3.684,7.758,7.992,7.758c0.082,0,0.164,0,0.246-0.004
	c9.281-0.278,18.386-0.987,27.272-1.947c3.89,6.446,9.084,12.137,16.048,16.779c2.004,1.336,6.914,4.609,12.09,4.609
	c2.094,0,4.234-0.539,6.242-1.961c7.062-5,4.504-15.047,3.543-18.832c-0.581-2.277-0.829-4.563-0.868-6.827
	c0.787-0.187,1.573-0.35,2.36-0.544c9.465-2.359,19.203,2.703,22.598,11.762l3.551,9.469c2.031,5.406,1.535,11.363-1.359,16.34
	c-2.891,4.969-7.812,8.344-13.508,9.254C146.239,229.994,77.606,226.123,62.621,203.647z M301.02,468.959l-69.332,18.906
	c-0.527,0.145-1.07,0.219-1.621,0.219h-23.926c-3.406,0-6.176-2.77-6.176-6.176c0-2.559,1.609-4.883,4.008-5.781l38.473-14.43
	c12.152-4.555,18.391-17.926,14.207-30.441c-4.398-13.172-6.309-42.043,6.469-67.594c1.977-3.953,0.375-8.758-3.578-10.734
	c-3.957-1.977-8.758-0.371-10.734,3.578c-16.121,32.242-11.844,66.309-7.328,79.82c1.438,4.309-0.605,8.871-4.652,10.387
	l-34.87,13.079l44.675-134.399c4.52-3.199,7.824-7.902,9.266-13.324c1.75-6.594,0.586-13.629-3.199-19.305l-6.078-9.117
	c-2.457-3.68-7.426-4.676-11.094-2.219c-3.676,2.449-4.668,7.418-2.219,11.094l6.078,9.117c1.258,1.887,1.629,4.129,1.047,6.32
	s-2.02,3.957-4.047,4.969c-1.898,0.949-3.344,2.617-4.012,4.633l-45.57,137.098c-1.883,5.348-2.84,10.934-2.84,16.602v11.988
	c0,7.078-5.758,12.836-12.836,12.836h-19.168h-7.727c-5.898,0-11.023-4-12.453-9.727c-1.449-5.789,1.371-11.926,6.711-14.594
	l6.234-3.117c9.234-4.617,15.328-13.887,15.898-24.219l3.137-59.926c0.23-4.41-3.156-8.176-7.57-8.406
	c-4.355-0.312-8.18,3.156-8.406,7.57l-3.137,59.902c-0.254,4.586-2.965,8.711-7.078,10.766l-6.234,3.117
	c-12.184,6.094-18.383,19.578-15.078,32.789c0.519,2.071,1.32,3.995,2.241,5.844h-17.643c-8.18,0-15.09-5.855-16.434-13.922
	l-0.824-4.941c-1.418-8.504,4.027-16.805,12.395-18.895c9.406-2.355,15.973-10.766,15.973-20.461v-98.23
	c3.562,2.067,7.729,2.771,11.789,1.75l19.172-4.797c2.895-0.719,5.5-2.227,7.551-4.336l-1.016,19.414
	c-0.23,4.41,3.156,8.176,7.57,8.406c0.141,0.008,0.285,0.012,0.426,0.012c4.227,0,7.758-3.312,7.98-7.582l2.516-48
	c0.188-3.598-2.051-6.879-5.469-8.012c-3.422-1.117-7.172,0.164-9.176,3.156l-14.258,21.418l-19.086,4.871v-2.719
	c0-6.465-3.859-12.238-9.832-14.715c-1.874-0.776-3.822-1.044-5.765-1.083c-0.141-0.007-0.26-0.082-0.403-0.082
	c-0.241,0-0.444,0.116-0.679,0.137c-3.855,0.191-7.591,1.632-10.379,4.519l-3.945-19.715c-1.219-6.098-5.105-11.191-10.676-13.98
	c-1.289-0.645-1.812-1.73-2.008-2.32c-0.199-0.59-0.43-1.77,0.215-3.062l9.895-19.785c1.395-2.797,1.656-5.965,0.75-8.891
	c-0.422-1.379-1.441-5.205-2.54-10.423c16.004,4.256,35.616,5.978,56.872,5.978c26.897-0.003,56.361-2.793,84.518-6.653
	l29.728,50.962c3.52,6.031,9.477,10.227,16.34,11.504c1.465,0.27,2.934,0.402,4.395,0.402c2.547,0,5.06-0.439,7.463-1.227
	c1.507,6.248,2.942,12.542,4.209,18.872c0.609,3.047,2.93,5.469,5.953,6.203c3.016,0.727,6.191-0.344,8.137-2.777
	c2.949-3.691,10.551-10.402,14.789-9.211c1.277,0.363,7.809,3.465,11.027,29.207c5.383,43.066-4.34,94.258-10.234,115.312
	C315.551,460.401,309.125,466.748,301.02,468.959z M338.998,431.294c1.618-8.57,3.125-18.122,4.292-28.288
	c42.387,7.042,110.997,31.485,131.707,83.641C446.528,469.75,388.403,438.358,338.998,431.294z"/>
<path fill="#995B39" d="M113.817,66.904c-8.035,2.91-14.039-2.938-14.738-3.656c-2.996-3.203-8.016-3.41-11.25-0.434
	c-3.258,2.984-3.477,8.047-0.488,11.301c3.785,4.129,11.855,9.613,21.984,9.613c3.137,0,6.477-0.527,9.945-1.785
	c4.152-1.504,6.301-6.09,4.793-10.246C122.563,67.545,117.985,65.404,113.817,66.904z"/>
<path fill="#995B39" d="M169.992,80.834c-1.5-4.152-6.086-6.297-10.246-4.793c-8.082,2.91-14.043-2.938-14.738-3.656
	c-2.992-3.203-8.008-3.406-11.254-0.43c-3.254,2.988-3.473,8.047-0.484,11.305c3.785,4.125,11.852,9.605,21.98,9.605
	c3.141,0,6.48-0.527,9.949-1.785C169.352,89.576,171.5,84.99,169.992,80.834z"/>
</svg>
