<?xml version="1.0" standalone="no"?><!-- Generator: Gravit.io --><svg xmlns="http://www.w3.org/2000/svg" xmlns:xlink="http://www.w3.org/1999/xlink" style="isolation:isolate" viewBox="0 0 512 512" width="512" height="512"><path d=" M 67.225 42 L 421.158 42 L 458.259 87.346 L 458.259 456.516 L 67.225 456.516 L 67.225 42 Z " fill="rgb(159,229,255)"/><linearGradient id="_lgradient_12" x1="0.25386158753546195" y1="0.9929079559732948" x2="0.6599616541493777" y2="0.061448367958777506" gradientTransform="matrix(388.202,0,0,411.513,53.741,58.487)" gradientUnits="userSpaceOnUse"><stop offset="1.7391304347826086%" stop-opacity="1" style="stop-color:rgb(3,151,242)"/><stop offset="99.1304347826087%" stop-opacity="1" style="stop-color:rgb(60,203,255)"/></linearGradient><path d=" M 53.741 58.487 L 405.11 58.487 L 441.942 103.505 L 441.942 470 L 53.741 470 L 53.741 58.487 Z " fill="url(#_lgradient_12)"/><path d=" M 116.34 297.87 L 408.29 297.87 L 408.29 461.1 L 116.34 461.1 L 116.34 297.87 Z  M 123.34 304.87 L 401.29 304.87 L 401.29 454.1 L 123.34 454.1 L 123.34 304.87 Z " fill-rule="evenodd" fill="rgb(255,220,116)"/><rect x="107.428" y="58.487" width="284.957" height="159.595" transform="matrix(1,0,0,1,0,0)" fill="rgb(2,144,232)"/><linearGradient id="_lgradient_13" x1="0.40585175848508837" y1="1.0192739150512065" x2="0.6613649068915769" y2="0.1146486406929158" gradientTransform="matrix(284.957,0,0,156.227,107.428,313.773)" gradientUnits="userSpaceOnUse"><stop offset="0%" stop-opacity="1" style="stop-color:rgb(251,179,52)"/><stop offset="100%" stop-opacity="1" style="stop-color:rgb(255,220,116)"/></linearGradient><rect x="107.428" y="313.773" width="284.957" height="156.227" transform="matrix(1,0,0,1,0,0)" fill="url(#_lgradient_13)"/><rect x="322.178" y="81.798" width="37.168" height="107.375" transform="matrix(1,0,0,1,0,0)" fill="rgb(255,255,255)"/><rect x="123.463" y="388.336" width="252.887" height="7.101" transform="matrix(1,0,0,1,0,0)" fill="rgb(255,255,255)"/><rect x="123.463" y="430.943" width="252.887" height="7.101" transform="matrix(1,0,0,1,0,0)" fill="rgb(255,255,255)"/><rect x="123.463" y="345.728" width="252.887" height="7.101" transform="matrix(1,0,0,1,0,0)" fill="rgb(255,255,255)"/></svg>